<svg width="47" height="36" viewBox="0 0 47 36" fill="none" xmlns="http://www.w3.org/2000/svg">
<path d="M11.42 35.36C17.42 35.36 21.74 31.16 21.74 26.12C21.74 20.84 18.38 17 12.38 17C11.18 17 9.98001 17.48 9.74001 17.6C10.1 12.08 15.74 8.83995 19.94 8.35995V0.199951C12.02 0.799951 0.26001 6.67995 0.26001 23.24C0.26001 29.36 4.22001 35.36 11.42 35.36ZM36.62 35.36C42.62 35.36 46.94 31.16 46.94 26.12C46.94 20.84 43.58 17 37.58 17C36.38 17 35.18 17.48 34.94 17.6C35.3 12.08 40.94 8.83995 45.14 8.35995V0.199951C37.22 0.799951 25.58 6.67995 25.58 23.24C25.58 29.36 29.42 35.36 36.62 35.36Z" fill="#C5C5C5"/>
</svg>
