<svg width="333" height="121" viewBox="0 0 333 121" fill="none" xmlns="http://www.w3.org/2000/svg">
<mask id="mask0_804_278" style="mask-type:luminance" maskUnits="userSpaceOnUse" x="0" y="0" width="333" height="121">
<path d="M332.75 0H0V121H332.75V0Z" fill="white"/>
</mask>
<g mask="url(#mask0_804_278)">
<path fill-rule="evenodd" clip-rule="evenodd" d="M279.386 80.3244C280.421 75.1007 281.652 69.6341 283.081 63.9243L280.459 63.7593C278.478 63.6494 277.109 63.347 276.352 62.8521C275.594 62.3574 275.216 61.7251 275.216 60.9554C275.216 59.7458 275.594 58.4813 276.352 57.1618C277.109 55.8423 278.303 55.2925 279.935 55.5124C280.866 55.6224 281.769 55.7049 282.644 55.7599C283.517 55.8148 284.42 55.8423 285.352 55.8423C287.1 49.7946 288.994 43.8568 291.033 38.029C293.072 32.2012 295.053 26.8682 296.976 22.03C298.899 17.1918 300.675 13.0408 302.306 9.57717C303.938 6.11345 305.219 3.72187 306.152 2.40236C307.084 0.972892 308.657 0.258167 310.871 0.258167C312.735 0.258167 314.687 0.588039 316.726 1.2478C318.765 1.90755 320.542 2.75972 322.057 3.80434C323.572 4.84894 324.62 6.08597 325.203 7.51544C325.785 8.94491 325.553 10.4293 324.503 11.9688C323.805 12.8484 322.785 14.6903 321.445 17.4942C320.104 20.2982 318.561 23.6794 316.813 27.6379C315.065 31.5964 313.201 36.0223 311.22 40.9154C309.24 45.8086 307.317 50.8391 305.452 56.0073H310.346C311.046 56.0073 311.511 56.4196 311.744 57.2442C311.978 58.069 312.006 58.9761 311.832 59.9657C311.658 60.9554 311.249 61.8901 310.608 62.7697C309.968 63.6494 309.123 64.1442 308.074 64.2541C307.142 64.3641 306.21 64.4466 305.277 64.5016C304.346 64.5565 303.355 64.639 302.306 64.749C300.675 69.2573 299.219 73.6281 297.937 77.8615C296.655 82.095 295.578 86.0259 294.703 89.6546C293.83 93.2833 293.218 96.472 292.868 99.221C292.519 101.97 292.577 104.059 293.043 105.489C293.277 106.148 293.742 106.533 294.441 106.643C295.14 106.753 295.781 106.643 296.364 106.313C297.646 105.544 299.16 104.142 300.908 102.107C302.656 100.073 304.521 97.6815 306.501 94.9326C308.482 92.1836 310.491 89.1598 312.531 85.861C314.57 82.5623 316.493 79.3185 318.299 76.1297C320.104 72.9409 321.736 69.8895 323.193 66.9756C324.65 64.0617 325.785 61.5602 326.601 59.471C326.834 58.9212 327.3 58.6188 327.999 58.5638C328.699 58.5088 329.427 58.6188 330.184 58.8937C330.942 59.1686 331.582 59.5534 332.107 60.0482C332.631 60.543 332.835 61.0653 332.718 61.6152C332.02 62.6047 330.942 64.6665 329.485 67.8003C328.029 70.9342 326.281 74.6177 324.242 78.8512C322.202 83.0845 319.959 87.5104 317.513 92.1286C315.065 96.747 312.502 101.035 309.822 104.994C307.142 108.952 304.462 112.223 301.782 114.808C299.102 117.392 296.481 118.738 293.917 118.848C289.023 119.068 285.178 117.86 282.381 115.22C279.585 112.581 277.895 108.787 277.312 103.839C277.094 102.07 277.003 100.144 277.038 98.0597C275.649 100.394 274.226 102.623 272.768 104.746C270.088 108.65 267.351 111.949 264.553 114.643C261.757 117.337 259.019 118.793 256.34 119.013C251.678 119.453 248.067 118.243 245.502 115.384C242.939 112.526 241.6 108.732 241.483 104.004C240.434 105.873 239.269 107.688 237.987 109.447C236.706 111.207 235.308 112.773 233.792 114.148C232.277 115.522 230.676 116.65 228.986 117.53C227.296 118.408 225.636 118.848 224.005 118.848C222.606 118.848 221.091 118.628 219.46 118.188C217.829 117.75 216.256 116.925 214.741 115.715C213.226 114.506 211.945 112.746 210.896 110.437C210.035 108.54 209.488 106.125 209.255 103.19C206.598 105.957 203.765 108.455 200.759 110.684C196.681 113.708 192.253 116.155 187.475 118.023C182.698 119.893 177.513 120.883 171.92 120.992C165.395 121.102 159.656 119.948 154.704 117.53C149.752 115.11 145.616 111.922 142.295 107.963C138.974 104.004 136.468 99.5234 134.779 94.5202C133.619 91.0865 132.831 87.6658 132.411 84.2579C130.991 86.6759 129.431 89.2 127.73 91.8302C125.539 95.2169 123.138 98.6037 120.529 101.99C117.919 105.377 115.146 108.456 112.209 111.227C109.273 113.997 106.243 116.263 103.121 118.022C99.9978 119.781 96.8518 120.705 93.6825 120.793C91.1656 120.793 88.8819 120.287 86.831 119.276C84.7803 118.264 82.9859 116.856 81.4479 115.053C80.1274 113.506 79.0646 111.73 78.2595 109.728C76.0463 112.511 73.7533 114.881 71.3804 116.834C68.817 118.946 66.2769 120.177 63.76 120.529C61.3363 120.705 59.3322 120.529 57.7476 120.001C56.1628 119.474 54.8811 118.638 53.9024 117.494C52.9236 116.351 52.2245 114.987 51.8051 113.405C51.3855 111.821 51.1757 110.106 51.1757 108.258C51.1757 105.443 51.6186 102.342 52.5041 98.9555C53.3897 95.5688 54.2519 92.2041 55.0909 88.8613C55.6502 86.4862 55.7667 84.8368 55.4404 83.9132C55.1142 82.9895 54.5316 82.6376 53.6927 82.8576C52.8537 83.0775 51.8982 83.7592 50.8263 84.9027C49.7542 86.0464 48.7988 87.4979 47.9598 89.2572C47.1209 91.0165 46.2353 92.9958 45.3032 95.1949C44.371 97.3941 43.4621 99.6592 42.5766 101.99C41.691 104.321 40.8987 106.587 40.1996 108.786C39.5005 110.985 38.9644 112.921 38.5916 114.591C38.2187 116.263 37.4264 117.758 36.2145 119.078C35.0028 120.397 33.3248 120.881 31.1809 120.529C30.4351 120.441 29.7593 120.133 29.1534 119.606C28.5475 119.078 28.0581 118.462 27.6852 117.758C27.3125 117.054 27.0327 116.307 26.8463 115.515C26.6599 114.723 26.5667 113.975 26.5667 113.273C26.5667 112.554 26.5986 111.768 26.6624 110.915C24.8593 113.431 23.0563 115.558 21.2533 117.296C19.1093 119.364 17.0121 120.441 14.9612 120.529C11.0461 120.705 7.97001 119.737 5.7328 117.626C3.4956 115.515 2.14398 112.481 1.6779 108.522C1.21182 104.739 1.46815 100.055 2.44693 94.4692C3.42571 88.8833 4.70742 82.9236 6.29211 76.5899L4.19474 76.4579C2.61005 76.37 1.51477 76.128 0.90886 75.7323C0.30295 75.3364 0 74.8306 0 74.2148C0 73.2471 0.30295 72.2356 0.90886 71.1799C1.51477 70.1243 2.47023 69.6844 3.77527 69.8604C4.521 69.9484 5.24341 70.0143 5.94254 70.0583C6.64167 70.1023 7.36409 70.1243 8.10983 70.1243C9.50808 65.2861 11.0229 60.536 12.6541 55.8737C14.2854 51.2114 15.87 46.945 17.4082 43.0745C18.9463 39.2039 20.3678 35.8832 21.6729 33.1122C22.9778 30.3413 24.0032 28.428 24.7489 27.3724C25.4947 26.2288 26.7531 25.6571 28.5242 25.6571C30.0157 25.6571 31.577 25.921 33.2083 26.4487C34.8396 26.9765 36.2612 27.6583 37.4729 28.494C38.6848 29.3296 39.5238 30.3193 39.9898 31.4629C40.4559 32.6064 40.2695 33.794 39.4305 35.0255C38.8713 35.7292 38.0556 37.2027 36.9836 39.4459C35.9116 41.689 34.6765 44.394 33.2783 47.5608C31.88 50.7276 30.3886 54.2683 28.8038 58.1829C27.2192 62.0974 25.6812 66.1218 24.1897 70.2563H28.1048C28.664 70.2563 29.0369 70.5861 29.2234 71.2459C29.4098 71.9057 29.433 72.6314 29.2932 73.4231C29.1534 74.2148 28.8272 74.9625 28.3144 75.6662C27.8017 76.37 27.126 76.7658 26.287 76.8538C25.5412 76.9418 24.7955 77.0077 24.0499 77.0517C23.3041 77.0957 22.5117 77.1617 21.6729 77.2497C20.3678 80.8563 19.2026 84.3529 18.1772 87.7397C17.1519 91.1264 16.2896 94.2712 15.5904 97.1742C14.8914 100.077 14.402 102.628 14.1222 104.827C13.8426 107.026 13.8893 108.698 14.2622 109.841C14.4485 110.37 14.8214 110.678 15.3808 110.766C15.94 110.853 16.4527 110.766 16.9188 110.502C17.9442 109.885 19.156 108.764 20.5542 107.136C21.9525 105.509 23.4439 103.596 25.0286 101.397C26.5304 99.3125 28.0531 97.0309 29.5967 94.5518C30.2556 91.7296 30.9935 88.7772 31.8101 85.6945C33.3482 79.8886 35.0959 73.9069 37.0535 67.7492C39.0111 61.5915 40.9686 55.8077 42.9262 50.3977C44.8837 44.9878 46.7247 40.2376 48.4492 36.1471C50.1738 32.0566 51.6419 29.1757 52.8537 27.5043C53.5994 26.3607 54.9044 25.789 56.7688 25.789C58.2603 25.789 59.8216 26.0528 61.4529 26.5807C63.0842 27.1085 64.5058 27.7902 65.7175 28.626C66.9294 29.4616 67.7683 30.4512 68.2344 31.5948C68.7005 32.7384 68.5141 33.9259 67.6751 35.1574C67.1158 35.9492 66.1137 37.7964 64.6689 40.6993C63.224 43.6024 61.5694 47.0989 59.7051 51.1895C57.8408 55.28 55.9065 59.7442 53.9024 64.5824C51.8982 69.4207 50.0572 74.1708 48.3793 78.833C49.2183 77.6895 50.2902 76.348 51.5953 74.8086C52.9003 73.2691 54.3917 71.8177 56.0696 70.4542C57.7476 69.0907 59.5419 67.9691 61.4529 67.0894C63.3638 66.2098 65.2981 65.9019 67.2556 66.1658C69.8657 66.4298 71.9398 67.7272 73.4778 70.0583C75.0159 72.3895 75.1324 75.5783 73.8274 79.6248C73.268 81.2962 72.6388 83.2094 71.9398 85.3646C71.2406 87.5199 70.6114 89.4331 70.0521 91.1044C68.747 94.7111 67.5819 98.1418 66.5565 101.397C65.5311 104.651 65.0185 107.29 65.0185 109.314C65.0185 109.577 65.1116 109.907 65.2981 110.304C65.4845 110.7 65.8108 110.897 66.2769 110.897C67.0226 110.897 68.3742 110.04 70.3318 108.324C72.1662 106.717 74.2665 104.433 76.633 101.474C76.6269 101.23 76.6239 100.984 76.6239 100.737C76.6239 97.0422 77.2065 93.1058 78.3717 88.9273C79.5369 84.7488 81.2381 80.9223 83.4753 77.4476C85.7124 73.9729 88.439 71.07 91.655 68.7389C94.871 66.4078 98.5763 65.2422 102.771 65.2422C104.449 65.2422 106.15 65.5281 107.875 66.0999C109.599 66.6717 111.114 67.5293 112.419 68.6729C113.723 69.8165 114.819 71.2899 115.705 73.0932C116.59 74.8966 117.033 77.0297 117.033 79.4928C116.846 84.1551 115.798 88.0256 113.887 91.1044C111.977 94.1833 109.622 96.6463 106.826 98.4937C104.029 100.341 101.07 101.638 97.9471 102.386C94.8243 103.134 91.9579 103.508 89.3479 103.508C89.1615 104.651 89.2313 105.817 89.5576 107.004C89.8839 108.192 90.3966 109.248 91.0957 110.172C91.7948 111.095 92.6804 111.843 93.7523 112.415C94.8244 112.987 96.0595 113.273 97.4577 113.273C99.8813 113.273 102.631 112.217 105.707 110.106C108.784 107.994 111.929 105.113 115.146 101.463C118.361 97.8119 121.554 93.5455 124.724 88.6634C127.376 84.5781 129.832 80.2621 132.092 75.7149C132.243 70.5902 132.877 65.3954 133.992 60.1307C135.391 53.5332 137.43 47.1831 140.11 41.0804C142.79 34.9776 146.023 29.2873 149.81 24.0093C153.597 18.7312 157.792 14.2229 162.394 10.4843C166.997 6.74572 171.949 3.9418 177.251 2.07249C182.553 0.203178 188.117 -0.401589 193.942 0.258167C196.855 0.588045 199.739 1.46771 202.594 2.89718C205.449 4.32664 208.012 6.19593 210.285 8.50507C212.556 10.8142 214.392 13.4807 215.79 16.5046C217.188 19.5284 217.887 22.7447 217.887 26.1535C217.887 30.7717 216.925 34.3728 215.004 36.9569C213.081 39.5409 210.75 41.3828 208.012 42.4823C205.274 43.5819 202.477 44.1042 199.623 44.0492C196.768 43.9943 194.408 43.6369 192.544 42.9771C190.33 42.3173 189.165 41.4377 189.048 40.3381C188.932 39.2385 189.456 38.084 190.621 36.8744C192.253 35.0051 193.564 32.7235 194.554 30.0295C195.545 27.3354 196.04 24.8339 196.04 22.5248C196.04 21.2053 195.807 19.8858 195.34 18.5662C194.875 17.2468 194.147 16.1472 193.156 15.2676C192.166 14.3879 190.971 13.8381 189.573 13.6181C188.175 13.3982 186.544 13.6731 184.679 14.4429C180.485 16.642 176.609 20.2706 173.056 25.3287C169.502 30.3868 166.473 36.0223 163.967 42.2349C161.462 48.4476 159.511 54.9076 158.112 61.6152C156.714 68.3227 156.132 74.4253 156.365 79.9233C156.597 83.7718 157.297 87.5104 158.462 91.1391C159.628 94.7678 161.288 97.9564 163.444 100.705C165.598 103.454 168.279 105.516 171.483 106.891C174.688 108.265 178.387 108.567 182.581 107.798C187.825 106.808 192.748 104.664 197.351 101.365C201.82 98.1614 206.043 94.3613 210.019 89.9647C210.126 89.3198 210.244 88.6666 210.372 88.0052C211.303 83.167 212.498 78.4113 213.954 73.7381C215.411 69.0648 216.955 64.804 218.587 60.9554C220.218 57.1068 221.674 54.2479 222.956 52.3786C224.587 50.5093 226.685 49.5747 229.248 49.5747C230.996 49.5747 232.744 49.8221 234.491 50.3169C236.239 50.8116 237.725 51.4989 238.949 52.3786C240.172 53.2583 240.958 54.3853 241.308 55.7599C241.658 57.1343 241.308 58.7012 240.259 60.4605C239.21 62.3299 237.899 64.9414 236.326 68.2951C234.753 71.6488 233.21 75.305 231.695 79.2635C230.181 83.222 228.782 87.1805 227.5 91.1391C226.218 95.0975 225.403 98.6162 225.053 101.695C224.587 104.554 225.024 106.258 226.365 106.808C227.704 107.358 229.364 105.983 231.345 102.685C232.86 100.266 234.463 97.1318 236.152 93.2832C237.841 89.4346 239.531 85.4487 241.22 81.3252C242.91 77.2017 244.541 73.1608 246.114 69.2023C247.687 65.2438 248.998 61.8901 250.047 59.1411C250.63 57.4917 251.154 56.0623 251.62 54.8527C252.086 53.6432 252.494 52.8185 252.844 52.3786C254.125 50.5093 256.106 49.5747 258.786 49.5747C260.534 49.5747 262.31 49.7671 264.117 50.152C265.923 50.5368 267.467 51.114 268.749 51.8838C270.03 52.6535 270.904 53.6432 271.37 54.8527C271.836 56.0623 271.603 57.5466 270.672 59.306C269.622 61.0653 268.37 63.4569 266.913 66.4808C265.456 69.5047 263.971 72.8034 262.457 76.3771C260.942 79.9508 259.601 83.5793 258.436 87.263C257.271 90.9467 256.455 94.3829 255.99 97.5717C255.99 97.9015 255.932 98.5337 255.815 99.4684C255.698 100.403 255.64 101.365 255.64 102.355C255.64 103.344 255.785 104.224 256.077 104.994C256.368 105.764 256.863 106.203 257.563 106.313C258.728 106.313 260.359 105.489 262.457 103.839C264.553 102.19 267.001 99.4959 269.797 95.7573C272.593 92.0187 275.624 87.1805 278.886 81.2427C279.052 80.9401 279.219 80.634 279.386 80.3244ZM101.652 77.5136C100.813 77.9534 99.8348 78.833 98.7161 80.1526C97.5975 81.472 96.4789 83.0775 95.3603 84.9687C94.2417 86.8601 93.2164 88.9273 92.2842 91.1704C91.352 93.4137 90.653 95.6788 90.1868 97.9659C91.7716 97.79 93.3794 97.1742 95.0107 96.1186C96.642 95.063 98.1335 93.7654 99.4852 92.2261C100.837 90.6866 101.979 88.9273 102.911 86.948C103.843 84.9687 104.402 82.9675 104.589 80.9443C104.682 79.8887 104.612 79.1189 104.379 78.6352C104.146 78.1514 103.866 77.7995 103.54 77.5795C103.214 77.3596 102.888 77.2717 102.561 77.3156C102.235 77.3596 101.932 77.4256 101.652 77.5136Z" fill="black"/>
</g>
</svg>
