<svg width="466" height="89" viewBox="0 0 466 89" fill="none" xmlns="http://www.w3.org/2000/svg">
<g clip-path="url(#clip0_804_252)">
<mask id="mask0_804_252" style="mask-type:luminance" maskUnits="userSpaceOnUse" x="0" y="0" width="466" height="89">
<path d="M466 0H0V89H466V0Z" fill="white"/>
</mask>
<g mask="url(#mask0_804_252)">
<mask id="mask1_804_252" style="mask-type:luminance" maskUnits="userSpaceOnUse" x="0" y="0" width="466" height="89">
<path d="M466 0H0V89H466V0Z" fill="white"/>
</mask>
<g mask="url(#mask1_804_252)">
<path d="M171.516 59.873H176.629V71.977H190.528V59.873H195.641V89.0003H190.528V76.7183H176.629V89.0003H171.516V59.873Z" fill="black"/>
<path d="M208.035 59.873H229.636V64.4525H213.148V72.0256H227.711V76.605H213.148V84.4209H229.847V89.0003H208.035V59.873Z" fill="black"/>
<path d="M250.363 59.873H255.072L267.789 89.0003H262.418L259.489 82.026H245.816L242.839 89.0003H237.629L250.363 59.873ZM257.628 77.5112L252.628 65.9412L247.677 77.5112H257.628Z" fill="black"/>
<path d="M277.059 59.873H282.188V84.34H297.495V89.0003H277.059V59.873Z" fill="black"/>
<path d="M309.212 64.6143H299.973V59.873H323.612V64.6143H314.373V89.0003H309.212V64.6143Z" fill="black"/>
<path d="M333.465 59.873H338.578V71.977H352.477V59.873H357.59V89.0003H352.477V76.7183H338.578V89.0003H333.465V59.873Z" fill="black"/>
<path fill-rule="evenodd" clip-rule="evenodd" d="M109.784 4.2388L150.915 76.9113C151.44 77.8366 151.777 78.8562 151.907 79.9118C152.037 80.9675 151.958 82.0386 151.674 83.0635C151.39 84.0885 150.907 85.0476 150.252 85.8855C149.597 86.7235 148.783 87.4242 147.857 87.9473C146.638 88.638 145.261 89.0005 143.86 88.9992H47.6992L95.6746 4.2388C96.1962 3.30061 96.8993 2.47561 97.7431 1.81188C98.5868 1.14816 99.554 0.658969 100.589 0.372817C101.623 0.0866667 102.704 0.00927499 103.769 0.145151C104.834 0.281028 105.861 0.627454 106.791 1.16425C108.043 1.90535 109.077 2.9665 109.784 4.2388Z" fill="black"/>
<path fill-rule="evenodd" clip-rule="evenodd" d="M56.3245 4.06093L72.9743 32.9131L40.8074 88.9993H8.09028C5.94461 88.9993 3.88681 88.1468 2.36959 86.6296C0.852366 85.1122 0 83.0542 0 80.9083C0.00146883 79.513 0.363779 78.1417 1.05174 76.9276L42.2474 4.10948C42.9531 2.8643 43.9763 1.8286 45.2128 1.10804C46.4494 0.387464 47.8548 0.0078125 49.286 0.0078125C50.7171 0.0078125 52.1226 0.387464 53.3591 1.10804C54.5956 1.8286 55.6189 2.8643 56.3245 4.10948V4.06093Z" fill="black"/>
<path d="M214.718 48.2208V14.239L197.809 42.5572H194.751L177.988 14.4656V48.2208H171.516V1.61719H176.968L196.385 34.3692L215.591 1.61719H221.044V48.2208H214.718Z" fill="black"/>
<path d="M239.668 45.6482C235.979 43.6705 232.904 40.7144 230.785 37.1042C228.617 33.4133 227.497 29.1999 227.549 24.9193C227.497 20.6387 228.617 16.4255 230.785 12.7344C232.909 9.12355 235.98 6.16315 239.668 4.17426C243.587 2.13752 247.938 1.07422 252.353 1.07422C256.769 1.07422 261.12 2.13752 265.039 4.17426C268.715 6.15233 271.777 9.10229 273.89 12.7021C276.06 16.4041 277.179 20.6282 277.126 24.9193C277.179 29.2104 276.06 33.4347 273.89 37.1366C271.777 40.732 268.714 43.6766 265.039 45.6482C261.12 47.685 256.769 48.7483 252.353 48.7483C247.938 48.7483 243.587 47.685 239.668 45.6482ZM261.609 40.4539C264.314 38.9252 266.552 36.6872 268.081 33.9811C269.667 31.1917 270.482 28.0308 270.443 24.8222C270.482 21.6139 269.667 18.4527 268.081 15.6634C266.552 12.9573 264.314 10.7194 261.609 9.19063C258.788 7.67203 255.62 6.91885 252.418 7.00608C249.172 6.96448 245.972 7.76747 243.13 9.33626C240.423 10.8631 238.184 13.1014 236.658 15.809C235.073 18.5984 234.257 21.7595 234.296 24.9679C234.257 28.1764 235.073 31.3374 236.658 34.1268C238.184 36.8343 240.423 39.0728 243.13 40.5995C245.981 42.1345 249.18 42.904 252.418 42.8326C255.638 42.8604 258.808 42.04 261.609 40.4539Z" fill="black"/>
<path d="M283.613 1.61691H303.24C307.787 1.52669 312.287 2.53124 316.363 4.54581C320.044 6.38146 323.121 9.23437 325.23 12.7662C327.404 16.4429 328.524 20.6475 328.466 24.9187C328.522 29.1897 327.403 33.3936 325.23 37.0712C323.125 40.609 320.047 43.4679 316.363 45.3078C312.287 47.3224 307.787 48.327 303.24 48.2367H283.613V1.61691ZM302.852 42.4274C306.298 42.5031 309.711 41.7484 312.803 40.2267C315.557 38.8598 317.856 36.7239 319.421 34.0776C321.01 31.2904 321.814 28.1259 321.751 24.9187C321.814 21.7116 321.01 18.5471 319.421 15.7598C317.856 13.1136 315.557 10.9777 312.803 9.61072C309.711 8.0891 306.298 7.33426 302.852 7.41H290.263V42.4274H302.852Z" fill="black"/>
<path d="M370.404 42.4277V48.2208H336.555V1.61719H369.45V7.41028H343.253V21.715H366.618V27.3786H343.253V42.4277H370.404Z" fill="black"/>
<path d="M410.355 48.2208L400.291 33.9808C399.061 34.0779 398.074 34.1265 397.362 34.1265H385.858V48.2208H379.191V1.61719H397.362C403.391 1.61719 408.143 3.05737 411.617 5.93773C413.329 7.38749 414.688 9.21012 415.59 11.2661C416.489 13.322 416.907 15.5567 416.811 17.799C416.944 21.0799 416.038 24.3191 414.222 27.055C412.345 29.6561 409.685 31.5895 406.634 32.573L417.685 48.2208H410.355ZM406.828 25.6472C407.93 24.6871 408.797 23.4851 409.357 22.1349C409.918 20.7846 410.161 19.3228 410.064 17.8637C410.163 16.4092 409.923 14.9514 409.36 13.6059C408.799 12.2605 407.931 11.0645 406.828 10.1126C404.001 8.11665 400.571 7.16169 397.119 7.41028H385.793V28.4466H397.119C400.582 28.6753 404.017 27.685 406.828 25.6472Z" fill="black"/>
<path d="M466.001 1.61719V48.2208H460.548L432.588 13.4623V48.2208H425.922V1.61719H431.391L459.351 36.3757V1.61719H466.001Z" fill="black"/>
</g>
</g>
</g>
<defs>
<clipPath id="clip0_804_252">
<rect width="466" height="89" fill="white"/>
</clipPath>
</defs>
</svg>
