<svg width="306" height="136" viewBox="0 0 306 136" fill="none" xmlns="http://www.w3.org/2000/svg">
<g clip-path="url(#clip0_804_304)">
<mask id="mask0_804_304" style="mask-type:luminance" maskUnits="userSpaceOnUse" x="0" y="0" width="306" height="136">
<path d="M306 0H0V136H306V0Z" fill="white"/>
</mask>
<g mask="url(#mask0_804_304)">
<mask id="mask1_804_304" style="mask-type:luminance" maskUnits="userSpaceOnUse" x="0" y="0" width="306" height="136">
<path d="M306 0H0V136H306V0Z" fill="white"/>
</mask>
<g mask="url(#mask1_804_304)">
<mask id="mask2_804_304" style="mask-type:luminance" maskUnits="userSpaceOnUse" x="0" y="0" width="306" height="136">
<path d="M305.788 0H0V135.946H305.788V0Z" fill="white"/>
</mask>
<g mask="url(#mask2_804_304)">
<path d="M54.061 2.30859H96.3691V98.6982H67.9685L68.9456 29.6581H67.3798L59.936 98.6982H36.4301L28.9893 29.6581H27.4205L28.4006 98.6982H0V2.30859H42.3081L47.4001 52.243H48.969" fill="black"/>
<path d="M173.338 29.663H174.907L176.673 67.211H200.029L202.327 2.31055H160.022C158.65 13.881 155.713 37.3149 154.733 52.245H153.555C152.575 37.3149 149.638 13.881 148.266 2.31055H105.961V98.7032H134.362L133.381 29.663H134.95L142.394 98.7032H165.9L173.344 29.663H173.338Z" fill="black"/>
<path d="M258.895 68.8877C248.105 68.8877 239.358 60.1389 239.358 49.3456C239.358 38.5523 248.105 29.8034 258.895 29.8034C266.838 29.8034 273.669 34.547 276.723 41.353L305.787 34.807C299.581 14.6491 280.82 0 258.635 0C231.391 0 209.305 22.0918 209.305 49.3426C209.305 76.5934 231.391 98.6852 258.635 98.6852C280.82 98.6852 299.584 84.0361 305.787 63.8782L276.723 57.3322C273.669 64.1382 266.838 68.8818 258.895 68.8818V68.8877Z" fill="black"/>
<path d="M188.351 98.6979C196.077 98.6979 202.34 92.4339 202.34 84.7064C202.34 76.9792 196.077 70.7148 188.351 70.7148C180.626 70.7148 174.363 76.9792 174.363 84.7064C174.363 92.4339 180.626 98.6979 188.351 98.6979Z" fill="black"/>
<path d="M66.1897 128.139L65.2902 130.802H62.8398L66.7545 119.273H69.8832L73.9652 130.802H71.3445L70.3972 128.139H66.1867H66.1897ZM69.8623 126.097C69.0435 123.664 68.5236 122.11 68.2456 121.073H68.2277C67.9438 122.209 67.3671 124.017 66.7127 126.097H69.8623Z" fill="black"/>
<path d="M77.8808 126.187V130.802H75.4453V119.273H80.5105C83.0236 119.273 84.3773 120.657 84.3773 122.439C84.3773 123.987 83.5346 124.824 82.7039 125.165C83.2746 125.377 84.1352 125.969 84.1352 128.034V128.602C84.1352 129.376 84.1412 130.261 84.2996 130.799H81.9389C81.7356 130.297 81.6968 129.436 81.6968 128.211V128.043C81.6968 126.782 81.38 126.187 79.5213 126.187H77.8838H77.8808ZM77.8808 124.202H79.9696C81.3352 124.202 81.8612 123.682 81.8612 122.72C81.8612 121.757 81.2486 121.258 80.0293 121.258H77.8808V124.202Z" fill="black"/>
<path d="M89.014 121.315H85.5117V119.273H94.9965V121.315H91.5062V130.799H89.011V121.315H89.014Z" fill="black"/>
<path d="M96.543 119.273H104.587V121.315H98.9754V124.14H104.232V126.181H98.9754V130.799H96.543V119.271V119.273Z" fill="black"/>
<path d="M108.877 119.273V126.142C108.877 128.354 110.016 129.009 111.256 129.009C112.681 129.009 113.578 128.234 113.578 126.142V119.273H116.073V126.02C116.073 129.962 113.766 130.966 111.223 130.966C108.68 130.966 106.379 129.917 106.379 126.067V119.276H108.874L108.877 119.273Z" fill="black"/>
<path d="M118.707 119.273H121.199V128.758H126.94L126.656 130.799H118.707V119.271V119.273Z" fill="black"/>
<path d="M128.418 119.273H130.91V128.758H136.651L136.367 130.799H128.418V119.271V119.273Z" fill="black"/>
<path d="M138.91 130.799V126.725C138.91 126.597 138.892 126.477 138.814 126.354L134.84 119.271H137.658C138.548 121.01 139.705 123.324 140.279 124.576C140.781 123.368 142.042 120.941 142.911 119.271H145.517L141.492 126.319C141.444 126.399 141.396 126.453 141.396 126.686V130.799H138.901H138.91Z" fill="black"/>
<path d="M241.759 135.779H237.19C233.834 135.779 231.641 133.567 231.641 130.16C231.641 126.752 233.768 124.25 237.298 124.25H241.762V135.779H241.759ZM239.267 126.265H237.399C235.191 126.265 234.214 127.909 234.214 130.154C234.214 132.037 235.128 133.764 237.384 133.764H239.267V126.265Z" fill="black"/>
<path d="M226.965 135.779V124.25H229.457V135.779H226.965Z" fill="black"/>
<path d="M222.601 127.631C222.338 126.474 221.507 125.966 220.174 125.966C218.841 125.966 218.273 126.492 218.273 127.335C218.273 128.273 218.829 128.68 220.802 129.14C223.936 129.876 224.713 131.017 224.713 132.575C224.713 134.583 223.21 135.949 220.482 135.949C217.422 135.949 216.203 134.305 216.038 132.616H218.548C218.668 133.325 219.062 134.096 220.548 134.096C221.558 134.096 222.17 133.678 222.17 132.859C222.17 132.04 221.68 131.732 219.818 131.301C216.466 130.512 215.73 129.263 215.73 127.64C215.73 125.535 217.323 124.092 220.368 124.092C223.413 124.092 224.833 125.533 225.111 127.634H222.601V127.631Z" fill="black"/>
<path d="M211.457 128.865V124.25H213.893V135.779H208.828C206.315 135.779 204.961 134.395 204.961 132.614C204.961 131.065 205.804 130.228 206.634 129.888C206.064 129.675 205.203 129.083 205.203 127.018V126.45C205.203 125.676 205.197 124.791 205.039 124.253H207.399C207.603 124.755 207.641 125.616 207.641 126.842V127.009C207.641 128.27 207.958 128.865 209.817 128.865H211.457ZM211.457 130.85H209.369C208.003 130.85 207.477 131.37 207.477 132.333C207.477 133.295 208.09 133.794 209.309 133.794H211.457V130.85Z" fill="black"/>
<path d="M200.481 135.779V128.91C200.481 126.698 199.342 126.043 198.102 126.043C196.677 126.043 195.78 126.818 195.78 128.91V135.779H193.285V129.033C193.285 125.09 195.592 124.086 198.135 124.086C200.678 124.086 202.979 125.135 202.979 128.985V135.776H200.484L200.481 135.779Z" fill="black"/>
<path d="M190.656 135.78H185.889C183.442 135.78 181.777 134.402 181.777 132.211C181.777 129.706 183.672 128.558 185.946 128.558H188.16V124.254H190.656V135.783V135.78ZM188.16 130.54H186.26C185.106 130.54 184.29 130.985 184.29 132.16C184.29 133.335 185.151 133.795 186.206 133.795H188.16V130.54Z" fill="black"/>
<path d="M177.171 133.738H180.673V135.78H171.188V133.738H174.678V124.254H177.174V133.738H177.171Z" fill="black"/>
<path d="M167.152 135.779V124.25H169.645V135.779H167.152Z" fill="black"/>
<path d="M161.639 124.25L165.706 135.779H163.028L161.313 130.455C160.793 128.844 160.395 127.478 160.129 126.301H160.097C159.861 127.377 159.412 128.785 158.862 130.42L157.063 135.782H154.52L158.695 124.253H161.633L161.639 124.25Z" fill="black"/>
<path d="M145.2 129.225H150.71V126.296H144.629L144.925 124.254H153.128V135.783H144.955V133.741H150.707V131.272H145.197V129.231L145.2 129.225Z" fill="black"/>
</g>
</g>
</g>
</g>
<defs>
<clipPath id="clip0_804_304">
<rect width="306" height="136" fill="white"/>
</clipPath>
</defs>
</svg>
