<svg width="601" height="128" viewBox="0 0 601 128" fill="none" xmlns="http://www.w3.org/2000/svg">
<g clip-path="url(#clip0_477_93)">
<path d="M37.8992 0.200195C31.6992 0.200195 26.6992 5.20018 26.6992 11.4002C26.6992 17.6002 31.6992 22.6002 37.8992 22.6002C44.0992 22.6002 49.0992 17.6002 49.0992 11.4002C49.0992 5.20018 44.0992 0.200195 37.8992 0.200195Z" fill="#1A1A1A"/>
<path d="M64.2 0.200195C58 0.200195 53 5.20018 53 11.4002C53 17.6002 58 22.6002 64.2 22.6002C70.4 22.6002 75.4 17.6002 75.4 11.4002C75.4 5.20018 70.3 0.200195 64.2 0.200195Z" fill="#1A1A1A"/>
<path d="M90.3992 0.200195C84.1992 0.200195 79.1992 5.20018 79.1992 11.4002C79.1992 17.6002 84.1992 22.6002 90.3992 22.6002C96.5992 22.6002 101.599 17.6002 101.599 11.4002C101.599 5.20018 96.5992 0.200195 90.3992 0.200195Z" fill="#1A1A1A"/>
<path d="M11.7 26.4004C5.5 26.4004 0.5 31.4004 0.5 37.6004C0.5 43.8004 5.5 48.8004 11.7 48.8004C17.9 48.8004 22.9 43.8004 22.9 37.6004C22.9 31.5004 17.8 26.4004 11.7 26.4004Z" fill="#1A1A1A"/>
<path d="M116.598 26.4004C110.398 26.4004 105.398 31.4004 105.398 37.6004C105.398 43.8004 110.398 48.8004 116.598 48.8004C122.798 48.8004 127.798 43.8004 127.798 37.6004C127.798 31.5004 122.798 26.4004 116.598 26.4004Z" fill="#1A1A1A"/>
<path d="M11.7 52.7002C5.5 52.7002 0.5 57.7002 0.5 63.9002C0.5 70.1002 5.5 75.1002 11.7 75.1002C17.9 75.1002 22.9 70.1002 22.9 63.9002C22.9 57.7002 17.8 52.7002 11.7 52.7002Z" fill="#1A1A1A"/>
<path d="M64.2 52.7002C58 52.7002 53 57.7002 53 63.9002C53 70.1002 58 75.1002 64.2 75.1002C70.4 75.1002 75.4 70.1002 75.4 63.9002C75.4 57.7002 70.3 52.7002 64.2 52.7002Z" fill="#1A1A1A"/>
<path d="M90.3992 52.7002C84.1992 52.7002 79.1992 57.7002 79.1992 63.9002C79.1992 70.1002 84.1992 75.1002 90.3992 75.1002C96.5992 75.1002 101.599 70.1002 101.599 63.9002C101.599 57.7002 96.5992 52.7002 90.3992 52.7002Z" fill="#1A1A1A"/>
<path d="M116.598 52.7002C110.398 52.7002 105.398 57.7002 105.398 63.9002C105.398 70.1002 110.398 75.1002 116.598 75.1002C122.798 75.1002 127.798 70.1002 127.798 63.9002C127.798 57.7002 122.798 52.7002 116.598 52.7002Z" fill="#1A1A1A"/>
<path d="M11.7 78.9004C5.5 78.9004 0.5 83.9004 0.5 90.1004C0.5 96.3004 5.5 101.3 11.7 101.3C17.9 101.3 22.9 96.3004 22.9 90.1004C22.9 83.9004 17.8 78.9004 11.7 78.9004Z" fill="#1A1A1A"/>
<path d="M37.8992 105.101C31.6992 105.101 26.6992 110.101 26.6992 116.301C26.6992 122.501 31.6992 127.501 37.8992 127.501C44.0992 127.501 49.0992 122.501 49.0992 116.301C49.0992 110.201 44.0992 105.101 37.8992 105.101Z" fill="#1A1A1A"/>
<path d="M64.2 105.101C58 105.101 53 110.101 53 116.301C53 122.501 58 127.501 64.2 127.501C70.4 127.501 75.4 122.501 75.4 116.301C75.4 110.201 70.3 105.101 64.2 105.101Z" fill="#1A1A1A"/>
<path d="M90.3992 105.101C84.1992 105.101 79.1992 110.101 79.1992 116.301C79.1992 122.501 84.1992 127.501 90.3992 127.501C96.5992 127.501 101.599 122.501 101.599 116.301C101.599 110.201 96.5992 105.101 90.3992 105.101Z" fill="#1A1A1A"/>
<path d="M589.302 78.9004C583.102 78.9004 578.102 83.9004 578.102 90.1004C578.102 96.3004 583.102 101.3 589.302 101.3C595.502 101.3 600.502 96.3004 600.502 90.1004C600.502 83.9004 595.402 78.9004 589.302 78.9004Z" fill="#1A1A1A"/>
<path d="M484.302 78.9004C478.102 78.9004 473.102 83.9004 473.102 90.1004C473.102 96.3004 478.102 101.3 484.302 101.3C490.502 101.3 495.502 96.3004 495.502 90.1004C495.502 83.9004 490.502 78.9004 484.302 78.9004Z" fill="#1A1A1A"/>
<path d="M589.302 52.7002C583.102 52.7002 578.102 57.7002 578.102 63.9002C578.102 70.1002 583.102 75.1002 589.302 75.1002C595.502 75.1002 600.502 70.1002 600.502 63.9002C600.502 57.7002 595.402 52.7002 589.302 52.7002Z" fill="#1A1A1A"/>
<path d="M536.802 105.101C530.602 105.101 525.602 110.101 525.602 116.301C525.602 122.501 530.602 127.501 536.802 127.501C543.002 127.501 548.002 122.501 548.002 116.301C548.002 110.201 543.002 105.101 536.802 105.101Z" fill="#1A1A1A"/>
<path d="M510.501 105.101C504.301 105.101 499.301 110.101 499.301 116.301C499.301 122.501 504.301 127.501 510.501 127.501C516.701 127.501 521.701 122.501 521.701 116.301C521.701 110.201 516.701 105.101 510.501 105.101Z" fill="#1A1A1A"/>
<path d="M589.302 26.4004C583.102 26.4004 578.102 31.4004 578.102 37.6004C578.102 43.8004 583.102 48.8004 589.302 48.8004C595.502 48.8004 600.502 43.8004 600.502 37.6004C600.502 31.5004 595.402 26.4004 589.302 26.4004Z" fill="#1A1A1A"/>
<path d="M589.302 0.200195C583.102 0.200195 578.102 5.20018 578.102 11.4002C578.102 17.6002 583.102 22.6002 589.302 22.6002C595.502 22.6002 600.502 17.6002 600.502 11.4002C600.502 5.20018 595.402 0.200195 589.302 0.200195Z" fill="#1A1A1A"/>
<path d="M563.001 0.200195C556.801 0.200195 551.801 5.20018 551.801 11.4002C551.801 17.6002 556.801 22.6002 563.001 22.6002C569.201 22.6002 574.201 17.6002 574.201 11.4002C574.201 5.20018 569.201 0.200195 563.001 0.200195Z" fill="#1A1A1A"/>
<path d="M536.802 0.200195C530.602 0.200195 525.602 5.20018 525.602 11.4002C525.602 17.6002 530.602 22.6002 536.802 22.6002C543.002 22.6002 548.002 17.6002 548.002 11.4002C548.002 5.20018 543.002 0.200195 536.802 0.200195Z" fill="#1A1A1A"/>
<path d="M510.501 0.200195C504.301 0.200195 499.301 5.20018 499.301 11.4002C499.301 17.6002 504.301 22.6002 510.501 22.6002C516.701 22.6002 521.701 17.6002 521.701 11.4002C521.701 5.20018 516.701 0.200195 510.501 0.200195Z" fill="#1A1A1A"/>
<path d="M169.501 0.200195C163.301 0.200195 158.301 5.20018 158.301 11.4002C158.301 17.6002 163.301 22.6002 169.501 22.6002C175.701 22.6002 180.701 17.6002 180.701 11.4002C180.801 5.20018 175.701 0.200195 169.501 0.200195Z" fill="#1A1A1A"/>
<path d="M195.802 0.200195C189.602 0.200195 184.602 5.20018 184.602 11.4002C184.602 17.6002 189.602 22.6002 195.802 22.6002C202.002 22.6002 207.002 17.6002 207.002 11.4002C207.002 5.20018 202.002 0.200195 195.802 0.200195Z" fill="#1A1A1A"/>
<path d="M274.501 0.200195C268.301 0.200195 263.301 5.20018 263.301 11.4002C263.301 17.6002 268.301 22.6002 274.501 22.6002C280.701 22.6002 285.701 17.6002 285.701 11.4002C285.701 5.20018 280.701 0.200195 274.501 0.200195Z" fill="#1A1A1A"/>
<path d="M222.001 26.4004C215.801 26.4004 210.801 31.4004 210.801 37.6004C210.801 43.8004 215.801 48.8004 222.001 48.8004C228.201 48.8004 233.201 43.8004 233.201 37.6004C233.201 31.5004 228.201 26.4004 222.001 26.4004Z" fill="#1A1A1A"/>
<path d="M248.302 26.4004C242.102 26.4004 237.102 31.4004 237.102 37.6004C237.102 43.8004 242.102 48.8004 248.302 48.8004C254.502 48.8004 259.502 43.8004 259.502 37.6004C259.502 31.5004 254.402 26.4004 248.302 26.4004Z" fill="#1A1A1A"/>
<path d="M222.001 52.7002C215.801 52.7002 210.801 57.7002 210.801 63.9002C210.801 70.1002 215.801 75.1002 222.001 75.1002C228.201 75.1002 233.201 70.1002 233.201 63.9002C233.201 57.7002 228.201 52.7002 222.001 52.7002Z" fill="#1A1A1A"/>
<path d="M195.802 78.9004C189.602 78.9004 184.602 83.9004 184.602 90.1004C184.602 96.3004 189.602 101.3 195.802 101.3C202.002 101.3 207.002 96.3004 207.002 90.1004C207.002 83.9004 202.002 78.9004 195.802 78.9004Z" fill="#1A1A1A"/>
<path d="M222.001 78.9004C215.801 78.9004 210.801 83.9004 210.801 90.1004C210.801 96.3004 215.801 101.3 222.001 101.3C228.201 101.3 233.201 96.3004 233.201 90.1004C233.201 83.9004 228.201 78.9004 222.001 78.9004Z" fill="#1A1A1A"/>
<path d="M169.501 105.101C163.301 105.101 158.301 110.101 158.301 116.301C158.301 122.501 163.301 127.501 169.501 127.501C175.701 127.501 180.701 122.501 180.701 116.301C180.801 110.201 175.701 105.101 169.501 105.101Z" fill="#1A1A1A"/>
<path d="M248.302 105.101C242.102 105.101 237.102 110.101 237.102 116.301C237.102 122.501 242.102 127.501 248.302 127.501C254.502 127.501 259.502 122.501 259.502 116.301C259.502 110.201 254.402 105.101 248.302 105.101Z" fill="#1A1A1A"/>
<path d="M274.501 105.101C268.301 105.101 263.301 110.101 263.301 116.301C263.301 122.501 268.301 127.501 274.501 127.501C280.701 127.501 285.701 122.501 285.701 116.301C285.701 110.201 280.701 105.101 274.501 105.101Z" fill="#1A1A1A"/>
<path d="M326.802 0.200195C320.602 0.200195 315.602 5.20018 315.602 11.4002C315.602 17.6002 320.602 22.6002 326.802 22.6002C333.002 22.6002 338.002 17.6002 338.002 11.4002C338.002 5.20018 333.002 0.200195 326.802 0.200195Z" fill="#1A1A1A"/>
<path d="M353.098 0.200195C346.898 0.200195 341.898 5.20018 341.898 11.4002C341.898 17.6002 346.898 22.6002 353.098 22.6002C359.298 22.6002 364.298 17.6002 364.298 11.4002C364.298 5.20018 359.198 0.200195 353.098 0.200195Z" fill="#1A1A1A"/>
<path d="M379.302 0.200195C373.102 0.200195 368.102 5.20018 368.102 11.4002C368.102 17.6002 373.102 22.6002 379.302 22.6002C385.502 22.6002 390.502 17.6002 390.502 11.4002C390.502 5.20018 385.502 0.200195 379.302 0.200195Z" fill="#1A1A1A"/>
<path d="M405.501 0.200195C399.301 0.200195 394.301 5.20018 394.301 11.4002C394.301 17.6002 399.301 22.6002 405.501 22.6002C411.701 22.6002 416.701 17.6002 416.701 11.4002C416.801 5.20018 411.701 0.200195 405.501 0.200195Z" fill="#1A1A1A"/>
<path d="M326.802 26.4004C320.602 26.4004 315.602 31.4004 315.602 37.6004C315.602 43.8004 320.602 48.8004 326.802 48.8004C333.002 48.8004 338.002 43.8004 338.002 37.6004C338.002 31.5004 333.002 26.4004 326.802 26.4004Z" fill="#1A1A1A"/>
<path d="M431.802 26.4004C425.602 26.4004 420.602 31.4004 420.602 37.6004C420.602 43.8004 425.602 48.8004 431.802 48.8004C438.002 48.8004 443.002 43.8004 443.002 37.6004C443.002 31.5004 438.002 26.4004 431.802 26.4004Z" fill="#1A1A1A"/>
<path d="M326.802 52.7002C320.602 52.7002 315.602 57.7002 315.602 63.9002C315.602 70.1002 320.602 75.1002 326.802 75.1002C333.002 75.1002 338.002 70.1002 338.002 63.9002C338.002 57.7002 333.002 52.7002 326.802 52.7002Z" fill="#1A1A1A"/>
<path d="M431.802 52.7002C425.602 52.7002 420.602 57.7002 420.602 63.9002C420.602 70.1002 425.602 75.1002 431.802 75.1002C438.002 75.1002 443.002 70.1002 443.002 63.9002C443.002 57.7002 438.002 52.7002 431.802 52.7002Z" fill="#1A1A1A"/>
<path d="M326.802 78.9004C320.602 78.9004 315.602 83.9004 315.602 90.1004C315.602 96.3004 320.602 101.3 326.802 101.3C333.002 101.3 338.002 96.3004 338.002 90.1004C338.002 83.9004 333.002 78.9004 326.802 78.9004Z" fill="#1A1A1A"/>
<path d="M379.302 78.9004C373.102 78.9004 368.102 83.9004 368.102 90.1004C368.102 96.3004 373.102 101.3 379.302 101.3C385.502 101.3 390.502 96.3004 390.502 90.1004C390.502 83.9004 385.502 78.9004 379.302 78.9004Z" fill="#1A1A1A"/>
<path d="M405.501 78.9004C399.301 78.9004 394.301 83.9004 394.301 90.1004C394.301 96.3004 399.301 101.3 405.501 101.3C411.701 101.3 416.701 96.3004 416.701 90.1004C416.801 83.9004 411.701 78.9004 405.501 78.9004Z" fill="#1A1A1A"/>
<path d="M326.802 105.101C320.602 105.101 315.602 110.101 315.602 116.301C315.602 122.501 320.602 127.501 326.802 127.501C333.002 127.501 338.002 122.501 338.002 116.301C338.002 110.201 333.002 105.101 326.802 105.101Z" fill="#1A1A1A"/>
<path d="M484.302 26.4004C478.102 26.4004 473.102 31.4004 473.102 37.6004C473.102 43.8004 478.102 48.8004 484.302 48.8004C490.502 48.8004 495.502 43.8004 495.502 37.6004C495.502 31.5004 490.502 26.4004 484.302 26.4004Z" fill="#1A1A1A"/>
<path d="M484.302 52.7002C478.102 52.7002 473.102 57.7002 473.102 63.9002C473.102 70.1002 478.102 75.1002 484.302 75.1002C490.502 75.1002 495.502 70.1002 495.502 63.9002C495.502 57.7002 490.502 52.7002 484.302 52.7002Z" fill="#1A1A1A"/>
<path d="M589.302 105.101C583.102 105.101 578.102 110.101 578.102 116.301C578.102 122.501 583.102 127.501 589.302 127.501C595.502 127.501 600.502 122.501 600.502 116.301C600.502 110.201 595.402 105.101 589.302 105.101Z" fill="#1A1A1A"/>
</g>
<defs>
<clipPath id="clip0_477_93">
<rect width="601" height="128" fill="white"/>
</clipPath>
</defs>
</svg>
