<svg width="472" height="233" viewBox="0 0 472 233" fill="none" xmlns="http://www.w3.org/2000/svg">
<g clip-path="url(#clip0_804_377)">
<path d="M444.891 153.073V41.9168C444.891 10.4625 450.438 3.34453 471.442 3.34453L471.997 0H397.516L398.07 3.34453C419.074 3.34453 425.012 10.4625 425.012 41.9168V153.073C425.012 184.527 419.464 191.645 398.461 191.645L397.906 194.99H471.997L471.442 191.645C450.438 191.645 444.891 184.527 444.891 153.073Z" fill="black"/>
<path d="M350.427 93.8751C375.708 89.2796 399.77 73.5678 399.77 46.5952C399.77 16.3332 374.977 -0.00390625 330.236 -0.00390625H237.584L238.139 3.34062C263.022 3.34062 267.011 8.37318 267.011 32.4223L267.003 128.308C267.003 172.047 245.121 189.792 214.675 189.792C184.228 189.792 167.761 169.095 167.761 122.882V41.9168C167.761 10.4625 173.309 3.34455 195.144 3.34455L195.699 2.84858e-05H121.574L122.129 3.34455C143.132 3.34455 148.68 9.60473 148.68 41.059V122.028C148.68 164.661 161.83 196.261 214.679 196.261C254.431 196.261 274.657 172.05 274.657 128.312V23.9862C274.657 16.8525 275.821 6.40578 284.033 6.40578C292.245 6.40578 293.187 15.5934 293.187 23.9862L293.234 152.778C293.234 184.233 287.686 191.35 266.683 191.35L266.128 194.695L345.957 194.986C379.654 194.986 409.346 179.42 409.346 142.418C409.346 107.713 375.715 95.0045 350.434 93.8751H350.427ZM312.26 12.2528C312.26 6.39004 315.515 6.40972 327.309 6.40972C353.611 6.40972 375.708 16.3095 375.708 46.7447C375.708 74.7876 352.689 91.9275 314.749 91.9275H314.604C313.311 91.9275 312.26 90.8687 312.26 89.5667V12.2528ZM339.987 189.796C318.155 189.796 312.26 184.531 312.26 153.073V99.8598C312.26 98.5571 313.311 97.499 314.604 97.499H316.409C362.323 97.499 385.279 111.979 385.279 142.579C385.279 174.954 367.105 189.796 339.987 189.796Z" fill="black"/>
<path d="M194.206 232.327C93.8274 232.327 123.953 97.4957 51.9066 97.4957H48.1872C47.0269 97.4957 46.1909 98.66 46.1909 99.8326V153.278C46.1909 184.732 51.7386 191.85 73.5739 191.85L74.1286 195.195H0L0.554774 191.85C21.5581 191.85 27.1058 184.732 27.1058 153.278V42.1179C27.1058 10.6636 21.5581 3.54567 0.554774 3.54567L0 0.205078H64.1663C116.011 0.205078 133.865 21.7242 133.865 47.5596C133.865 82.5707 105.306 91.9277 83.1418 93.8794C144.827 107.749 131.141 225.535 195.879 225.535C212.784 225.535 222.91 214.117 222.91 203.056C222.91 201.608 223.567 200.861 225.262 200.861C230.29 200.861 233.701 204.611 233.701 209.301C233.701 223.1 215.979 232.327 194.206 232.327ZM61.2401 6.61083C49.4414 6.61083 46.1909 6.67379 46.1909 12.4421V89.7676C46.1909 91.0697 47.2418 92.1285 48.535 92.1285H63.6155C103.364 92.1285 109.693 65.6279 109.693 48.9525C109.693 19.8513 90.2835 6.61083 61.2401 6.61083Z" fill="black"/>
<path d="M216.585 50.7539H217.828V50.8326C217.828 74.1146 236.569 92.993 259.689 92.993H259.768V94.2444H259.689C236.573 94.2444 217.828 113.119 217.828 136.405V136.484H216.585V136.405C216.585 113.092 197.797 94.2053 174.648 94.2444V92.993H174.727C197.809 92.993 216.534 74.1776 216.589 50.931L216.585 50.7539Z" fill="black"/>
</g>
<defs>
<clipPath id="clip0_804_377">
<rect width="472" height="233" fill="white"/>
</clipPath>
</defs>
</svg>
