<svg width="578" height="131" viewBox="0 0 578 131" fill="none" xmlns="http://www.w3.org/2000/svg">
<g clip-path="url(#clip0_804_383)">
<mask id="mask0_804_383" style="mask-type:luminance" maskUnits="userSpaceOnUse" x="0" y="0" width="578" height="131">
<path d="M578 0H0V131H578V0Z" fill="white"/>
</mask>
<g mask="url(#mask0_804_383)">
<mask id="mask1_804_383" style="mask-type:luminance" maskUnits="userSpaceOnUse" x="0" y="0" width="578" height="131">
<path d="M578 0H0V131H578V0Z" fill="white"/>
</mask>
<g mask="url(#mask1_804_383)">
<path d="M31.2424 1.76462C22.7002 4.08731 18.3361 9.38308 18.3361 17.6518C18.3361 25.3632 23.1644 31.0305 32.9138 34.9326C37.4635 36.7909 40.1563 37.1625 50.37 37.2555C57.8908 37.3484 62.5335 37.8128 62.7191 38.3703C62.9048 38.9277 63.6477 39.1135 64.3904 38.8348C66.3403 38.0916 65.969 40.2284 63.9262 41.3433C61.6979 42.4583 60.7693 42.5512 61.4192 41.5291C62.1621 40.2284 42.6633 41.1576 36.6279 42.7369C14.065 48.4043 0.694415 63.9199 0.601562 84.4526C0.601562 112.232 26.1356 130.535 65.0405 130.535C85.0037 130.535 98.281 125.89 108.866 115.205C126.136 97.7386 126.601 74.2325 109.888 58.2526C106.731 55.1866 102.831 52.0277 101.16 51.1916C98.467 49.7979 98.281 49.4263 99.2101 47.5682C102.738 40.693 110.537 33.9107 114.716 33.9107C117.873 33.9107 122.33 36.5121 123.258 38.8348C123.908 40.6001 124.094 40.6001 124.094 39.1135C124.186 36.1406 126.787 39.2064 127.437 43.1086C128.086 47.0107 126.415 52.1206 123.908 54.2576C121.587 56.1157 120.844 53.4213 122.701 49.7979C123.537 48.3114 124.187 46.2675 124.187 45.3385C124.187 44.4093 123.166 45.8958 121.866 48.5902C118.244 56.3944 118.987 60.8539 124.001 60.8539C129.2 60.8539 132.543 56.3015 132.543 49.2406C132.543 41.9008 128.365 36.605 120.102 33.4463C113.602 30.9376 101.067 31.7739 94.1961 35.2114C84.8179 39.764 78.8756 47.3824 68.7545 68.1937C63.9262 78.1346 58.9122 87.8899 57.6123 89.841C56.4052 91.8854 55.7553 93.279 56.3124 93.0004C58.5408 91.6068 63.2763 83.3376 71.7257 66.5213C77.4827 54.8149 81.9396 47.2894 84.4466 44.5022C88.253 40.4142 93.267 36.9767 94.1961 37.9057C94.3813 38.1845 92.5247 41.0647 90.0177 44.3164C85.189 50.3555 79.3393 59.8321 72.84 72.0027C64.4834 87.6112 57.7051 96.6237 53.0627 98.5747C49.4414 100.061 47.6773 100.247 48.5129 98.9462C48.8844 98.3887 47.9558 98.0174 46.3774 98.0174C40.6205 98.0174 38.9491 91.9781 42.9418 85.4747C45.6345 81.1079 45.8202 78.3206 43.7774 76.1835C42.0133 74.4185 38.2064 74.976 35.9779 77.2985C34.7708 78.5994 34.7708 78.5994 36.6279 77.4845C39.4135 75.8121 40.4348 77.1131 38.5779 80.179C36.5351 83.4304 35.0495 83.8025 34.9565 81.1079C34.8638 79.3429 34.678 79.5282 34.0281 82.0367C32.2638 88.1686 36.7208 96.9025 43.1275 99.5036C47.213 101.269 56.3124 101.176 60.5835 99.3176C68.5688 96.0662 77.2042 85.2887 90.203 62.4334C93.6389 56.4873 97.0742 51.5633 97.7238 51.5633C100.138 51.5633 110.166 59.9249 113.787 64.9419C121.216 75.4407 122.609 90.9559 117.13 102.198C108.866 119.014 90.8534 129.048 68.9402 128.956C53.6197 128.862 40.6205 123.566 32.2638 113.997C26.4143 107.401 22.143 97.924 21.2146 89.3769C18.8933 69.03 25.8571 52.4923 39.4135 45.8029C45.5417 42.83 46.0059 42.7369 56.3124 42.9227C62.1621 43.0157 67.7331 42.7369 68.6617 42.1795C70.7042 41.0647 70.89 37.3484 68.8473 35.3972C67.1759 33.6321 61.5121 33.3533 62.5335 34.9326C62.9977 35.676 62.4406 35.8618 60.7693 35.3972C59.4694 35.1185 58.1695 35.2114 57.8908 35.5831C57.0551 36.9767 44.9845 36.1406 42.0133 34.5611C31.7068 29.2654 30.0355 12.449 39.1349 6.87455C42.849 4.64476 49.0699 4.64476 53.434 6.87455C55.291 7.89652 60.6765 11.8916 65.2261 15.7008C76.0901 24.8057 80.2684 26.9427 87.5107 26.8496C98.9314 26.7569 107.473 19.0454 107.473 8.73268C107.473 2.04334 101.345 -1.76588 97.2601 2.32207C95.774 3.8086 95.4029 5.38803 95.4029 10.5909C95.4029 14.1214 95.1244 17.8376 94.7531 18.7668C94.1961 20.2533 94.2887 20.2533 95.6814 19.1385C98.281 17.0944 97.4453 19.6029 94.5672 22.6689C89.1821 28.4291 79.8965 25.8277 67.0831 14.9576C50.7413 1.02136 43.6846 -1.58005 31.2424 1.76462ZM100.046 5.01639C100.046 8.54692 98.3744 9.56885 97.3527 6.78165C96.4244 4.18023 96.9816 2.32207 98.7455 2.32207C99.5812 2.32207 100.046 3.34405 100.046 5.01639ZM27.6213 5.75965C27.5285 7.61779 22.4217 15.7008 21.586 15.3291C20.0075 14.493 20.8431 9.6618 23.0716 7.33906C25.0215 5.20221 27.6213 4.36604 27.6213 5.75965ZM131.615 49.0548C131.615 52.2135 131.058 54.6291 130.13 55.8369C128.737 57.6022 128.643 57.6022 129.294 55.7441C129.665 54.722 130.222 51.656 130.501 48.9618C130.687 46.3604 131.058 44.1305 131.244 44.1305C131.429 44.1305 131.615 46.3604 131.615 49.0548ZM22.0503 52.1206C19.5433 54.4433 16.1078 58.4385 14.5292 61.0397C11.4652 65.871 7.19401 76.6484 7.19401 79.9004L7.10118 81.758L5.70838 79.9004C3.85136 77.5771 4.50132 70.8877 7.10118 65.0348C9.23672 60.2036 16.2935 52.864 21.586 49.9838C27.0643 47.1036 27.0643 47.3824 22.0503 52.1206Z" fill="black"/>
<path d="M144.057 7.61786C144.335 9.10443 148.328 35.4903 152.97 66.4285C157.613 97.3666 161.791 123.009 162.164 123.381C162.535 123.753 166.62 124.031 171.17 123.845L179.434 123.567L191.596 90.7706C198.283 72.7462 204.038 57.6952 204.409 57.4165C204.689 57.1377 205.246 57.6952 205.617 58.6243C205.988 59.5533 211.56 74.6046 218.059 91.9782L229.852 123.567L239.136 123.845L248.421 124.124L248.979 120.594C250.649 110.281 266.249 6.503 266.249 5.85265C266.249 5.481 262.256 5.10938 257.429 5.10938C252.599 5.10938 248.608 5.3881 248.608 5.75974C248.608 6.22426 245.914 26.1066 242.573 49.9837C239.229 73.9538 236.537 94.0218 236.537 94.5793C236.537 97.0878 234.587 92.1642 223.167 60.6683L210.91 26.9427H205.06H199.21L187.047 60.5753C180.269 79.0642 174.604 94.394 174.326 94.6727C174.048 94.9515 171.17 75.9982 168.012 52.6782C164.763 29.3583 161.977 9.10443 161.698 7.61786L161.141 5.10938H152.321H143.5L144.057 7.61786Z" fill="black"/>
<path d="M373.031 64.5704V124.031H381.388H389.745V64.5704V5.10938H381.388H373.031V64.5704Z" fill="black"/>
<path d="M497.453 64.5704V124.031H505.81H514.166V95.8804C514.166 64.7561 514.63 61.2257 519.738 55.0938C524.195 49.7051 529.952 47.3825 538.772 47.4752C551.864 47.4752 558.456 52.3995 560.592 63.5483C561.056 66.3356 561.52 81.0152 561.52 96.3451V124.124L569.692 123.845L577.769 123.567V92.907C577.769 58.4384 577.398 55.837 571.734 47.0108C560.963 30.2874 534.687 27.0356 517.23 40.1356L514.166 42.3653V23.7837V5.10938H505.81H497.453V64.5704Z" fill="black"/>
<path d="M299.675 32.7961C285.933 36.4195 276.649 45.4315 273.862 57.8813L273.027 61.5046L278.783 62.6195C287.327 64.106 288.255 64.0131 288.997 61.04C290.761 53.7004 298.654 47.5685 307.66 46.3606C323.167 44.5025 334.587 54.5365 327.067 63.5485C324.374 66.6145 319.36 68.5657 302.183 72.9325C280.269 78.4137 273.306 85.1029 273.306 100.433C273.306 112.046 279.248 119.665 291.691 124.124C298.19 126.354 311.096 126.54 318.338 124.403C323.631 122.824 331.71 118.178 332.916 116.041C333.474 115.02 334.216 115.484 335.981 118.178C339.23 123.288 343.222 124.96 351.95 124.96H359.101V117.064V109.167H354.087C350.744 109.167 348.516 108.702 347.586 107.68C346.751 106.937 346.009 106.193 345.915 106.101C345.822 106.007 345.544 93.558 345.265 78.5071C344.708 52.5855 344.616 50.9131 342.666 47.2898C335.608 34.0039 317.781 28.0579 299.675 32.7961ZM329.852 97.7389C329.11 100.805 324.932 105.357 320.661 107.494C317.874 108.981 314.718 109.631 308.497 109.909C301.161 110.188 299.675 110.003 295.962 108.052C292.526 106.286 291.598 105.171 290.576 102.012C289.462 98.4817 289.462 97.6455 291.04 94.5795C293.175 90.2134 296.24 88.7264 311.839 83.988C318.711 81.9443 325.581 79.5286 327.067 78.5997L329.852 77.02L330.131 86.3113C330.316 91.5137 330.131 96.624 329.852 97.7389Z" fill="black"/>
<path d="M432.452 32.146C422.982 34.0043 413.417 40.8795 410.076 48.2191C407.753 53.422 407.753 63.7347 410.076 68.9376C413.603 76.5563 421.588 80.551 443.13 85.0106C459.286 88.3553 465.414 90.7711 467.272 94.3945C470.335 100.248 468.107 106.008 461.515 109.26C457.615 111.211 455.665 111.489 446.844 111.489C438.116 111.489 435.888 111.211 431.802 109.26C425.86 106.658 420.01 100.433 418.432 95.3234C417.781 93.1863 417.225 91.5139 417.039 91.5139C416.853 91.5139 414.532 91.9788 411.838 92.4435C401.81 94.4873 402.554 94.0224 403.296 97.3671C405.897 109.724 417.688 120.687 432.173 124.497C442.944 127.284 462.535 125.797 470.799 121.616C475.07 119.386 480.735 113.719 482.777 109.724C487.327 100.805 485.562 87.8905 478.877 81.852C472.656 76.1841 466.901 74.1404 447.308 70.2383C427.067 66.1503 425.023 65.0354 425.023 58.2531C425.023 54.7227 425.488 53.6078 428.552 50.6347C438.209 40.8795 459.379 45.6177 465.322 58.8106L466.992 62.434L474.05 60.6689C478.042 59.6468 481.384 58.7177 481.57 58.5319C481.664 58.346 480.827 55.8375 479.527 53.0503C472.471 37.7206 451.486 28.4298 432.452 32.146Z" fill="black"/>
</g>
</g>
</g>
<defs>
<clipPath id="clip0_804_383">
<rect width="578" height="131" fill="white"/>
</clipPath>
</defs>
</svg>
