<svg width="388" height="100" viewBox="0 0 388 100" fill="none" xmlns="http://www.w3.org/2000/svg">
<path d="M344.334 59.5556V62.234H309.871C310.229 66.1623 311.479 69.1978 313.532 71.162C315.585 73.1262 318.353 74.1082 321.835 74.1082C326.924 74.1082 330.406 71.9655 332.37 67.5015H343.173C341.923 72.2334 339.423 75.9831 335.673 78.7508C331.834 81.5185 327.192 82.8577 321.746 82.8577C314.871 82.8577 309.336 80.715 305.14 76.251C300.854 71.8762 298.801 66.073 298.801 58.7521C298.801 51.5204 300.854 45.7172 305.05 41.2532C309.247 36.8785 314.782 34.6465 321.567 34.6465C328.531 34.6465 334.066 36.9678 338.173 41.521C342.28 46.1636 344.334 52.1454 344.334 59.5556ZM321.478 43.3959C314.871 43.3959 311.032 47.0564 309.961 54.3774H333.084C332.549 50.9847 331.299 48.3063 329.335 46.3422C327.281 44.378 324.692 43.3959 321.478 43.3959Z" fill="black"/>
<path d="M287.058 30.1795C285.273 30.1795 283.844 29.6438 282.594 28.3938C281.344 27.2332 280.809 25.8047 280.809 24.0191C280.809 22.3228 281.344 20.8943 282.594 19.6444C283.844 18.3945 285.273 17.7695 287.058 17.7695C288.755 17.7695 290.183 18.3945 291.433 19.6444C292.594 20.8943 293.219 22.3228 293.219 24.0191C293.219 25.8047 292.594 27.2332 291.344 28.3938C290.094 29.6438 288.665 30.1795 287.058 30.1795ZM292.683 81.7833H281.434V35.7148H292.683V81.7833Z" fill="black"/>
<path d="M276.366 26.8792H272.438C268.509 26.8792 266.634 28.7541 266.634 32.4145V35.7179H276.098V44.2888H266.634V81.7864H255.474V44.2888H248.332V35.7179H255.474V32.236C255.474 27.772 256.724 24.2901 259.224 21.7902C261.724 19.2904 265.474 17.9512 270.563 17.9512C272.795 17.9512 274.759 18.0405 276.366 18.219V26.8792Z" fill="black"/>
<path d="M243.554 81.7802H232.305V18.2129H243.554V81.7802Z" fill="black"/>
<path d="M225.931 59.5556V62.234H191.469C191.826 66.1623 193.076 69.1978 195.13 71.162C197.183 73.1262 199.951 74.1082 203.433 74.1082C208.522 74.1082 212.004 71.9655 213.968 67.5015H224.771C223.521 72.2334 221.021 75.9831 217.271 78.7508C213.432 81.5185 208.789 82.8577 203.343 82.8577C196.469 82.8577 190.933 80.715 186.737 76.251C182.452 71.8762 180.398 66.073 180.398 58.7521C180.398 51.5204 182.452 45.7172 186.648 41.2532C190.844 36.8785 196.38 34.6465 203.165 34.6465C210.129 34.6465 215.664 36.9678 219.771 41.521C223.878 46.1636 225.931 52.1454 225.931 59.5556ZM203.076 43.3959C196.469 43.3959 192.63 47.0564 191.558 54.3774H214.682C214.146 50.9847 212.896 48.3063 210.932 46.3422C208.879 44.378 206.29 43.3959 203.076 43.3959Z" fill="black"/>
<path d="M149.836 83.2134C141.176 83.2134 134.48 81.3385 129.748 77.4102C125.016 73.5712 122.605 68.0358 122.605 60.8041H134.48C134.48 65.3574 135.819 68.5715 138.497 70.5356C141.176 72.4998 145.015 73.4819 150.193 73.4819C154.3 73.4819 157.514 72.7676 159.746 71.1606C161.889 69.5535 163.049 67.3216 163.049 64.286C163.049 61.7862 162.067 59.9113 160.192 58.5721C158.317 57.3222 154.925 56.1616 150.014 55.0902L144.658 54.0188C130.998 51.519 124.213 45.0908 124.213 34.7343C124.213 29.2883 126.266 24.9135 130.462 21.6995C134.569 18.4854 140.372 16.7891 147.782 16.7891C156.175 16.7891 162.514 18.5747 166.799 22.1459C171.085 25.7171 173.406 30.7167 173.674 37.1449H161.978C161.71 33.5737 160.46 30.8953 158.317 29.1097C156.175 27.4134 152.693 26.5206 147.961 26.5206C144.211 26.5206 141.444 27.2348 139.479 28.574C137.515 30.0025 136.533 31.8774 136.533 34.3772C136.533 36.9663 137.426 38.9305 139.212 40.2697C140.997 41.6982 144.301 42.8588 148.943 43.7516L154.478 44.823C161.889 46.3407 167.245 48.5727 170.549 51.519C173.852 54.4652 175.549 58.4828 175.549 63.6611C175.549 69.9107 173.227 74.7318 168.763 78.1244C164.21 81.5171 157.871 83.2134 149.836 83.2134Z" fill="black"/>
<path d="M380.527 74.7059L384.023 65.5547H387.719V83.2123H385.164V77.6819C385.164 73.7139 385.189 70.7131 385.263 68.7291C384.916 69.7955 384.42 71.1595 383.775 72.8211L379.783 83.2123H377.551L373.508 72.8211C372.963 71.3827 372.467 70.0435 372.045 68.8035C372.095 70.7875 372.144 73.7387 372.144 77.6819V83.2123H369.59V65.5547H373.26L376.881 74.9539C377.625 76.9131 378.22 78.5747 378.691 79.9387C379.237 78.3019 379.832 76.5659 380.527 74.7059Z" fill="black"/>
<path d="M353.637 65.5547H368.046V67.9355H362.193V83.2123H359.49V67.9355H353.637V65.5547Z" fill="black"/>
<rect x="40" y="41" width="21" height="59" fill="black"/>
<circle cx="50.5" cy="21.5" r="10.5" fill="black"/>
<path d="M8 71V88C8 90.2091 9.79086 92 12 92H27V100H12C5.37258 100 0 94.6274 0 88V71H8ZM100 88L99.9961 88.3096C99.8319 94.7939 94.5239 100 88 100H74V92H88C90.2091 92 92 90.2091 92 88V71H100V88ZM27 0V8H12C9.79087 8 8 9.79086 8 12V28H0V12C1.64896e-06 5.47609 5.20609 0.168106 11.6904 0.00390625L12 0H27ZM88.3096 0.00390625C94.7939 0.168106 100 5.47608 100 12V28H92V12C92 9.79086 90.2091 8 88 8H74V0H88L88.3096 0.00390625Z" fill="black"/>
</svg>
