<svg version="1.1" xmlns="http://www.w3.org/2000/svg" xmlns:xlink="http://www.w3.org/1999/xlink" width="1560" height="804"><defs/><g><path fill="none" stroke="#02063B" paint-order="fill stroke markers" d=" M 20 440.7252293088783 L 21 442.6330697846146 L 22 444.5367644870316 L 23 446.4361191830393 L 24 448.3309400823564 L 25 450.22103385728275 L 26 452.10620766242465 L 27 453.9862691543705 L 28 455.8610265113158 L 29 457.73028845263434 L 30 459.5938642583947 L 31 461.45156378881927 L 32 463.30319750368403 L 33 465.14857648165736 L 34 466.98751243957554 L 35 468.8198177516532 L 36 470.6453054686267 L 37 472.4637893368285 L 38 474.2750838171904 L 39 476.0790041041744 L 40 477.87536614462766 L 41 479.663986656562 L 42 481.44468314785377 L 43 483.2172739348634 L 44 484.9815781609726 L 45 486.7374158150372 L 46 488.4846077497533 L 47 490.2229756999358 L 48 491.95234230070656 L 49 493.6725311055912 L 50 495.38336660452137 L 51 497.0846742417424 L 52 498.7762804336227 L 53 500.4580125863648 L 54 502.12969911361506 L 55 503.79116945397004 L 56 505.4422540883793 L 57 507.08278455744113 L 58 508.7125934785904 L 59 510.3315145631767 L 60 511.93938263343034 L 61 513.5360336393157 L 62 515.1213046752691 L 63 516.6950339968198 L 64 518.257061037093 L 65 519.8072264231919 L 66 521.3453719924593 L 67 522.8713408086139 L 68 524.3849771777631 L 69 525.8861266642882 L 70 527.3746361066013 L 71 528.8503536327725 L 72 530.3131286760248 L 73 531.762811990097 L 74 533.1992556644713 L 75 534.6223131394636 L 76 536.0318392211778 L 77 537.4276900963199 L 78 538.8097233468704 L 79 540.1777979646159 L 80 541.5317743655359 L 81 542.8715144040442 L 82 544.1968813870844 L 83 545.5077400880762 L 84 546.8039567607124 L 85 548.0853991526053 L 86 549.3519365187803 L 87 550.6034396350158 L 88 551.8397808110275 L 89 553.0608339034968 L 90 554.2664743289417 L 91 555.4565790764268 L 92 556.6310267201153 L 93 557.7896974316573 L 94 558.9324729924156 L 95 560.0592368055285 L 96 561.1698739078051 L 97 562.2642709814556 L 98 563.3423163656526 L 99 564.403900067924 L 100 565.4489137753758 L 101 566.4772508657425 L 102 567.4888064182664 L 103 568.4834772244025 L 104 569.461161798348 L 105 570.4217603873983 L 106 571.3651749821234 L 107 572.2913093263687 L 108 573.2000689270751 L 109 574.0913610639209 L 110 574.9650947987816 L 111 575.8211809850081 L 112 576.6595322765231 L 113 577.4800631367318 L 114 578.2826898472499 L 115 579.0673305164454 L 116 579.8339050877937 L 117 580.5823353480457 L 118 581.3125449352083 L 119 582.0244593463347 L 120 582.718005945127 L 121 583.3931139693462 L 122 584.0497145380331 L 123 584.6877406585352 L 124 585.3071272333423 L 125 585.9078110667289 L 126 586.489730871201 L 127 587.0528272737504 L 128 587.5970428219111 L 129 588.1223219896228 L 130 588.6286111828948 L 131 589.1158587452749 L 132 589.5840149631193 L 133 590.0330320706661 L 134 590.4628642549071 L 135 590.8734676602635 L 136 591.2648003930597 L 137 591.6368225257979 L 138 591.9894961012319 L 139 592.3227851362401 L 140 592.6366556254961 L 141 592.9310755449394 L 142 593.2060148550413 L 143 593.4614455038716 L 144 593.697341429959 L 145 593.9136785649514 L 146 594.1104348360709 L 147 594.2875901683663 L 148 594.4451264867607 L 149 594.5830277178967 L 150 594.7012797917752 L 151 594.7998706431919 L 152 594.8787902129678 L 153 594.9380304489757 L 154 594.9775853069618 L 155 594.997450751162 L 156 594.9976247547145 L 157 594.9781072998657 L 158 594.9389003779722 L 159 594.8800079892986 L 160 594.8014361426078 L 161 594.7031928545491 L 162 594.5852881488396 L 163 594.447734055242 L 164 594.2905446083369 L 165 594.1137358460907 L 166 593.9173258082197 L 167 593.7013345343494 L 168 593.4657840619694 L 169 593.2106984241857 L 170 592.9361036472676 L 171 592.6420277479936 L 172 592.3285007307913 L 173 591.9955545846776 L 174 591.6432232799937 L 175 591.2715427649397 L 176 590.8805509619066 L 177 590.4702877636073 L 178 590.0407950290062 L 179 589.5921165790483 L 180 589.1242981921885 L 181 588.6373875997203 L 182 588.1314344809065 L 183 587.6064904579097 L 184 587.0626090905258 L 185 586.4998458707191 L 186 585.918258216961 L 187 585.3179054683704 L 188 584.698848878661 L 189 584.0611516098902 L 190 583.4048787260153 L 191 582.7300971862553 L 192 582.0368758382587 L 193 581.3252854110789 L 194 580.5953985079582 L 195 579.8472895989198 L 196 579.0810350131696 L 197 578.2967129313088 L 198 577.4944033773565 L 199 576.6741882105857 L 200 575.8361511171704 L 201 574.9803776016477 L 202 574.1069549781937 L 203 573.2159723617146 L 204 572.3075206587549 L 205 571.3816925582216 L 206 570.4385825219279 L 207 569.4782867749543 L 208 568.5009032958319 L 209 567.5065318065451 L 210 566.4952737623573 L 211 565.4672323414588 L 212 564.4225124344405 L 213 563.3612206335913 L 214 562.2834652220229 L 215 561.1893561626215 L 216 560.0790050868286 L 217 558.9525252832507 L 218 557.8100316861014 L 219 556.651640863474 L 220 555.4774710054485 L 221 554.2876419120324 L 222 553.0822749809381 L 223 551.8614931951959 L 224 550.6254211106069 L 225 549.3741848430343 L 226 548.107912055536 L 227 546.8267319453386 L 228 545.5307752306564 L 229 544.2201741373538 L 230 542.8950623854541 L 231 541.5555751754966 L 232 540.2018491747419 L 233 538.8340225032279 L 234 537.4522347196771 L 235 536.0566268072582 L 236 534.6473411592012 L 237 533.2245215642688 L 238 531.7883131920864 L 239 530.3388625783301 L 240 528.8763176097757 L 241 527.4008275092099 L 242 525.9125428202053 L 243 524.4116153917606 L 244 522.8981983628072 L 245 521.3724461465845 L 246 519.8345144148857 L 247 518.2845600821742 L 248 516.7227412895735 L 249 515.149217388733 L 250 513.5641489255686 L 251 511.9676976238825 L 252 510.3600263688628 L 253 508.74129919046413 L 254 507.1116812466719 L 255 505.4713388066513 L 256 503.8204392337829 L 257 502.1591509685868 L 258 500.48764351153625 L 259 498.80608740576406 L 260 497.1146542196622 L 261 495.41351652937647 L 262 493.70284790119854 L 263 491.9828228738576 L 264 490.2536169407117 L 265 488.5154065318425 L 266 486.76836899605416 L 267 485.0126825827786 L 268 483.24852642388856 L 269 481.4760805154212 L 270 479.69552569921285 L 271 477.90704364444787 L 272 476.11081682912334 L 273 474.30702852143054 L 274 472.49586276105634 L 275 470.6775043404057 L 276 468.85213878574723 L 277 467.01995233828455 L 278 465.1811319351535 L 279 463.3358651903493 L 280 461.48434037558485 L 281 459.62674640108054 L 282 457.7632727962906 L 283 455.8941096905652 L 284 454.01944779375157 L 285 452.13947837673607 L 286 450.254393251929 L 287 448.36438475369386 L 288 446.46964571872354 L 289 444.57036946636583 L 290 442.6667497788981 L 291 440.7589808817571 L 292 438.84725742372086 L 293 436.93177445704976 L 294 435.0127274175852 L 295 433.0903121048091 L 296 431.16472466186667 L 297 429.23616155555436 L 298 427.304819556274 L 299 425.37089571795656 L 300 423.434587357957 L 301 421.4960920369219 L 302 419.5556075386321 L 303 417.61333184982396 L 304 415.66946313998756 L 305 413.7241997411484 L 306 411.77774012763166 L 307 409.8302828958113 L 308 407.88202674384837 L 309 405.9331704514169 L 310 403.9839128594231 L 311 402.0344528497178 L 312 400.0849893248042 L 313 398.13572118754405 L 314 396.1868473208642 L 315 394.2385665674639 L 316 392.29107770952737 L 317 390.34457944844223 L 318 388.39927038452595 L 319 386.4553489967625 L 320 384.5130136225523 L 321 382.57246243747534 L 322 380.6338934350714 L 323 378.69750440663955 L 324 376.76349292105675 L 325 374.83205630462055 L 326 372.90339162091567 L 327 370.9776956507078 L 328 369.05516487186645 L 329 367.13599543931775 L 330 365.2203831650313 L 331 363.3085234980418 L 332 361.40061150450674 L 333 359.4968418478045 L 334 357.5974087686729 L 335 355.7025060653905 L 336 353.8123270740037 L 337 351.9270646486011 L 338 350.046911141636 L 339 348.1720583843012 L 340 346.30269766695653 L 341 344.4390197196115 L 342 342.58121469246527 L 343 340.72947213650554 L 344 338.8839809841689 L 345 337.0449295300643 L 346 335.2125054117611 L 347 333.3868955906445 L 348 331.56828633284056 L 349 329.75686319021065 L 350 327.9528109814203 L 351 326.1563137730823 L 352 324.3675548609758 L 353 322.58671675134536 L 354 320.81398114227994 L 355 319.0495289051738 L 356 317.2935400662728 L 357 315.546193788306 L 358 313.8076683522061 L 359 312.0781411389195 L 360 310.3577886113078 L 361 308.6467862961438 L 362 306.9453087662025 L 363 305.2535296224495 L 364 303.57162147632823 L 365 301.89975593214933 L 366 300.238103569581 L 367 298.5868339262453 L 368 296.9461154804204 L 369 295.3161156338505 L 370 293.69700069466603 L 371 292.08893586041575 L 372 290.4920852012108 L 373 288.9066116429857 L 374 287.3326769508742 L 375 285.770441712705 L 376 284.22006532261724 L 377 282.6817059647969 L 378 281.1555205973377 L 379 279.6416649362272 L 380 278.14029343945816 L 381 276.65155929127013 L 382 275.17561438651984 L 383 273.7126093151834 L 384 272.26269334699145 L 385 270.8260144162 L 386 269.4027191064958 L 387 267.9929526360411 L 388 266.59685884265684 L 389 265.2145801691473 L 390 263.8462576487663 L 391 262.4920308908277 L 392 261.1520380664614 L 393 259.82641589451555 L 394 258.51529962760736 L 395 257.21882303832314 L 396 255.93711840556986 L 397 254.6703165010783 L 398 253.41854657606117 L 399 252.1819363480248 L 400 250.960611987739 L 401 249.7546981063635 L 402 248.56431774273378 L 403 247.3895923508079 L 404 246.2306417872745 L 405 245.08758429932337 L 406 243.96053651258154 L 407 242.84961341921354 L 408 241.75492836618866 L 409 240.67659304371674 L 410 239.61471747385207 L 411 238.5694099992679 L 412 237.54077727220246 L 413 236.5289242435772 L 414 235.53395415228883 L 415 234.55596851467547 L 416 233.5950671141595 L 417 232.6513479910665 L 418 231.72490743262208 L 419 230.815839963128 L 420 229.92423833431792 L 421 229.05019351589348 L 422 228.19379468624342 L 423 227.35512922334436 L 424 226.53428269584543 L 425 225.73133885433836 L 426 224.94637962281203 L 427 224.1794850902937 L 428 223.4307335026779 L 429 222.70020125474295 L 430 221.98796288235613 L 431 221.29409105486926 L 432 220.61865656770405 L 433 219.9617283351288 L 434 219.32337338322733 L 435 218.7036568430602 L 436 218.10264194401933 L 437 217.52039000737696 L 438 216.95696044002898 L 439 216.4124107284335 L 440 215.8867964327458 L 441 215.38017118114945 L 442 214.89258666438448 L 443 214.42409263047372 L 444 213.97473687964677 L 445 213.54456525946307 L 446 213.13362166013414 L 447 212.7419480100453 L 448 212.36958427147803 L 449 212.0165684365323 L 450 211.68293652325056 L 451 211.36872257194258 L 452 211.07395864171252 L 453 210.79867480718787 L 454 210.54289915545095 L 455 210.30665778317325 L 456 210.08997479395265 L 457 209.8928722958545 L 458 209.71537039915535 L 459 209.5574872142917 L 460 209.41923885001196 L 461 209.3006394117327 L 462 209.20170100009983 L 463 209.12243370975372 L 464 209.0628456282993 L 465 209.02294283548102 L 466 209.00272940256235 L 467 209.0022073919105 L 468 209.02137685678605 L 469 209.06023584133723 L 470 209.1187803807999 L 471 209.19700450190177 L 472 209.29490022347193 L 473 209.41245755725518 L 474 209.54966450893113 L 475 209.7065070793379 L 476 209.88296926590064 L 477 210.07903306426402 L 478 210.29467847012936 L 479 210.52988348129563 L 480 210.7846240999043 L 481 211.05887433488792 L 482 211.35260620462176 L 483 211.66578973977906 L 484 211.9983929863885 L 485 212.35038200909466 L 486 212.72172089462035 L 487 213.1123717554308 L 488 213.5222947335993 L 489 213.95144800487404 L 490 214.39978778294517 L 491 214.8672683239124 L 492 215.35384193095248 L 493 215.8594589591852 L 494 216.38406782073895 L 495 216.9276149900143 L 496 217.49004500914486 L 497 218.07130049365585 L 498 218.6713221383191 L 499 219.29004872320363 L 500 219.92741711992207 L 501 220.58336229807173 L 502 221.2578173318694 L 503 221.95071340697982 L 504 222.661979827537 L 505 223.39154402335694 L 506 224.139331557342 L 507 224.90526613307608 L 508 225.6892696026086 L 509 226.491261974428 L 510 227.3111614216236 L 511 228.14888429023395 L 512 229.00434510778214 L 513 229.87745659199646 L 514 230.76812965971618 L 515 231.67627343597994 L 516 232.6017952632982 L 517 233.54460071110705 L 518 234.5045935854026 L 519 235.48167593855575 L 520 236.47574807930602 L 521 237.48670858293252 L 522 238.5144543016025 L 523 239.55888037489575 L 524 240.6198802405029 L 525 241.69734564509827 L 526 242.7911666553851 L 527 243.90123166931136 L 528 245.02742742745707 L 529 246.1696390245899 L 530 247.32774992138883 L 531 248.5016419563345 L 532 249.69119535776562 L 533 250.8962887560987 L 534 252.11679919621147 L 535 253.35260214998834 L 536 254.60357152902543 L 537 255.86957969749528 L 538 257.15049748517026 L 539 258.44619420060064 L 540 259.75653764444974 L 541 261.0813941229821 L 542 262.4206284617038 L 543 263.77410401915455 L 544 265.1416827008493 L 545 266.5232249733675 L 546 267.91858987858996 L 547 269.32763504808065 L 548 270.75021671761266 L 549 272.18618974183613 L 550 273.6354076090873 L 551 275.0977224563376 L 552 276.57298508427925 L 553 278.06104497254853 L 554 279.56175029508336 L 555 281.0749479356137 L 556 282.6004835032838 L 557 284.13820134840546 L 558 285.68794457833803 L 559 287.2495550734962 L 560 288.8228735034836 L 561 290.4077393433484 L 562 292.0039908899616 L 563 293.6114652785164 L 564 295.2299984991442 L 565 296.85942541364886 L 566 298.4995797723561 L 567 300.15029423107507 L 568 301.8114003681727 L 569 303.4827287017585 L 570 305.1641087069751 L 571 306.85536883339813 L 572 308.5563365225393 L 573 310.2668382254518 L 574 311.9866994204376 L 575 313.71574463085483 L 576 315.45379744301994 L 577 317.2006805242083 L 578 318.95621564074713 L 579 320.72022367620025 L 580 322.49252464964366 L 581 324.27293773402835 L 582 326.0612812746311 L 583 327.85737280758724 L 584 329.6610290785082 L 585 331.472066061179 L 586 333.2902989763338 L 587 335.1155423105088 L 588 336.94760983497105 L 589 338.78631462471816 L 590 340.6314690775506 L 591 342.4828849332131 L 592 344.340373292602 L 593 346.2037446370388 L 594 348.0728088476073 L 595 349.9473752245503 L 596 351.827252506727 L 597 353.71224889112807 L 598 355.60217205244396 L 599 357.49682916268836 L 600 359.39602691087276 L 601 361.29957152272914 L 602 363.20726878048083 L 603 365.1189240426592 L 604 367.0343422639617 L 605 368.9533280151529 L 606 370.8756855030043 L 607 372.8012185902703 L 608 374.7297308157003 L 609 376.6610254140841 L 610 378.5949053363268 L 611 380.5311732695543 L 612 382.4696316572446 L 613 384.4100827193852 L 614 386.3523284726514 L 615 388.2961707506071 L 616 390.2414112239238 L 617 392.18785142061563 L 618 394.13529274628917 L 619 396.0835365044069 L 620 398.03238391655896 L 621 399.98163614274506 L 622 401.93109430166226 L 623 403.880559490996 L 624 405.8298328077144 L 625 407.77871536836267 L 626 409.7270083293543 L 627 411.6745129072593 L 628 413.6210303990866 L 629 415.56636220255643 L 630 417.5103098363644 L 631 419.45267496043266 L 632 421.3932593961458 L 633 423.3318651465711 L 634 425.2682944166606 L 635 427.20234963343125 L 636 429.1338334661236 L 637 431.06254884633563 L 638 432.98829898812903 L 639 434.9108874081071 L 640 436.8301179454628 L 641 438.7457947819919 L 642 440.65772246207234 L 643 442.56570591260765 L 644 444.4695504629284 L 645 446.3690618646556 L 646 448.26404631151917 L 647 450.1543104591327 L 648 452.03966144471923 L 649 453.9199069067894 L 650 455.7948550047686 L 651 457.6643144385692 L 652 459.52809446810966 L 653 461.38600493277573 L 654 463.2378562708218 L 655 465.083459538712 L 656 466.92262643039885 L 657 468.75516929653463 L 658 470.5809011636181 L 659 472.39963575307144 L 660 474.21118750024544 L 661 476.015371573353 L 662 477.81200389232765 L 663 479.60090114760476 L 664 481.38188081882436 L 665 483.1547611934546 L 666 484.91936138533055 L 667 486.6755013531106 L 668 488.4230019186461 L 669 490.1616847852625 L 670 491.8913725559508 L 671 493.61188875146786 L 672 495.32305782834186 L 673 497.0247051967831 L 674 498.71665723849765 L 675 500.39874132440116 L 676 502.070785832232 L 677 503.7326201640626 L 678 505.38407476370446 L 679 507.02498113400844 L 680 508.65517185405633 L 681 510.27448059624317 L 682 511.8827421432466 L 683 513.4797924048847 L 684 515.0654684348581 L 685 516.6396084473745 L 686 518.2020518336565 L 687 519.7526391783279 L 688 521.2912122756791 L 689 522.8176141458083 L 690 524.3316890506388 L 691 525.8332825098082 L 692 527.3222413164301 L 693 528.7984135527263 L 694 530.261648605526 L 695 531.7117971816335 L 696 533.1487113230603 L 697 534.5722444221209 L 698 535.9822512363914 L 699 537.378587903529 L 700 538.7611119559491 L 701 540.1296823353618 L 702 541.4841594071645 L 703 542.8244049746878 L 704 544.1502822932961 L 705 545.46165608434 L 706 546.758392548958 L 707 548.040359381728 L 708 549.3074257841673 L 709 550.5594624780766 L 710 551.7963417187311 L 711 553.0179373079138 L 712 554.2241246067917 L 713 555.4147805486327 L 714 556.5897836513614 L 715 557.7490140299547 L 716 558.8923534086731 L 717 560.0196851331285 L 718 561.1308941821867 L 719 562.225867179702 L 720 563.304492406086 L 721 564.3666598097055 L 722 565.4122610181118 L 723 566.4411893490968 L 724 567.453339821579 L 725 568.4486091663135 L 726 569.4268958364296 L 727 570.3881000177905 L 728 571.3321236391783 L 729 572.2588703822994 L 730 573.1682456916122 L 731 574.0601567839744 L 732 574.9345126581096 L 733 575.7912241038925 L 734 576.6302037114506 L 735 577.451365880082 L 736 578.254626826991 L 737 579.0399045958343 L 738 579.8071190650842 L 739 580.5561919562035 L 740 581.2870468416315 L 741 581.999609152582 L 742 582.6938061866522 L 743 583.3695671152395 L 744 584.0268229907691 L 745 584.6655067537278 L 746 585.2855532395067 L 747 585.8868991850495 L 748 586.4694832353076 L 749 587.0332459494998 L 750 587.578129807177 L 751 588.1040792140911 L 752 588.6110405078675 L 753 589.0989619634797 L 754 589.5677937985274 L 755 590.0174881783151 L 756 590.4479992207334 L 757 590.8592830009395 L 758 591.2512975558396 L 759 591.62400288837 L 760 591.9773609715779 L 761 592.3113357525017 L 762 592.6258931558486 L 763 592.9210010874724 L 764 593.1966294376474 L 765 593.4527500841402 L 766 593.68933689508 L 767 593.9063657316239 L 768 594.1038144504197 L 769 594.2816629058663 L 770 594.4398929521678 L 771 594.5784884451859 L 772 594.6974352440866 L 773 594.7967212127828 L 774 594.8763362211732 L 775 594.9362721461752 L 776 594.9765228725541 L 777 594.997084293547 L 778 594.9979543112817 L 779 594.9791328369904 L 780 594.9406217910196 L 781 594.8824251026335 L 782 594.8045487096133 L 783 594.7070005576513 L 784 594.5897905995405 L 785 594.4529307941585 L 786 594.2964351052482 L 787 594.1203194999921 L 788 593.9246019473842 L 789 593.7093024163958 L 790 593.4744428739383 L 791 593.2200472826224 L 792 592.9461415983127 L 793 592.6527537674793 L 794 592.3399137243471 L 795 592.0076533878408 L 796 591.6560066583291 L 797 591.2850094141651 L 798 590.894699508026 L 799 590.4851167630511 L 800 590.0563029687784 L 801 589.6083018768811 L 802 589.1411591967034 L 803 588.6549225905969 L 804 588.1496416690576 L 805 587.6253679856643 L 806 587.0821550318185 L 807 586.5200582312867 L 808 585.9391349345456 L 809 585.3394444129302 L 810 584.7210478525874 L 811 584.084008348232 L 812 583.4283908967103 L 813 582.7542623903676 L 814 582.0616916102236 L 815 581.3507492189547 L 816 580.6215077536843 L 817 579.8740416185819 L 818 579.1084270772717 L 819 578.3247422450511 L 820 577.5230670809212 L 821 576.7034833794282 L 822 575.8660747623184 L 823 575.0109266700053 L 824 574.1381263528536 L 825 573.247762862276 L 826 572.3399270416477 L 827 571.4147115170376 L 828 570.4722106877578 L 829 569.5125207167321 L 830 568.5357395206843 L 831 567.5419667601482 L 832 566.5313038292988 L 833 565.5038538456082 L 834 564.4597216393224 L 835 563.3990137427677 L 836 562.3218383794804 L 837 561.2283054531646 L 838 560.1185265364791 L 839 558.9926148596536 L 840 557.8506852989356 L 841 556.6928543648702 L 842 555.5192401904121 L 843 554.3299625188729 L 844 553.1251426917034 L 845 551.9049036361137 L 846 550.6693698525297 L 847 549.4186674018923 L 848 548.1529238927942 L 849 546.8722684684601 L 850 545.5768317935709 L 851 544.2667460409317 L 852 542.9421448779854 L 853 541.6031634531762 L 854 540.2499383821599 L 855 538.8826077338647 L 856 537.5013110164041 L 857 536.1061891628439 L 858 534.6973845168209 L 859 533.275040818022 L 860 531.8393031875171 L 861 530.3903181129525 L 862 528.9282334336054 L 863 527.4531983252995 L 864 525.9653632851849 L 865 524.4648801163823 L 866 522.9519019124957 L 867 521.4265830419915 L 868 519.8890791324488 L 869 518.3395470546805 L 870 516.778144906728 L 871 515.20503199773 L 872 513.6203688316692 L 873 512.0243170909957 L 874 510.4170396201306 L 875 508.7987004088509 L 876 507.1694645755581 L 877 505.52949835043034 L 878 503.8789690584635 L 879 502.21804510239787 L 880 500.5468959455366 L 881 498.86569209445537 L 882 497.1746050816059 L 883 495.47380744781344 L 884 493.76347272467433 L 885 492.0437754168495 L 886 490.3148909842598 L 887 488.5769958241846 L 888 486.8302672532636 L 889 485.07488348940444 L 890 483.3110236336011 L 891 481.538867651659 L 892 479.75859635583345 L 893 477.9703913863814 L 894 476.1744351930289 L 895 474.3709110163562 L 896 472.5600028691004 L 897 470.74189551738255 L 898 468.91677446185497 L 899 467.084825918775 L 900 465.2462368010051 L 901 463.40119469894324 L 902 461.5498878613811 L 903 459.6925051762995 L 904 457.82923615159484 L 905 455.9602708957441 L 906 454.0858000984079 L 907 452.20601501097525 L 908 450.3211074270487 L 909 448.4312696628775 L 910 446.536694537735 L 911 444.6375753542449 L 912 442.7341058786593 L 913 440.8264803210889 L 914 438.9148933156864 L 915 436.99953990079035 L 916 435.08061549902385 L 917 433.1583158973562 L 918 431.2328372271269 L 919 429.30437594403435 L 920 427.373128808091 L 921 425.43929286354916 L 922 423.5030654187961 L 923 421.5646440262225 L 924 419.62422646206664 L 925 417.6820107062352 L 926 415.73819492210396 L 927 413.7929774362978 L 928 411.84655671845746 L 929 409.89913136098875 L 930 407.9509000588002 L 931 406.0020615890307 L 932 404.05281479076837 L 933 402.10335854476193 L 934 400.153891753131 L 935 398.20461331907075 L 936 396.25572212655834 L 937 394.3074170200609 L 938 392.3598967842478 L 939 390.4133601237073 L 940 388.46800564267517 L 941 386.5240318247694 L 942 384.58163701273963 L 943 382.64101938823023 L 944 380.7023769515604 L 945 378.7659075015207 L 946 376.83180861519395 L 947 374.90027762779505 L 948 372.9715116125374 L 949 371.0457073605257 L 950 369.12306136067735 L 951 367.203769779674 L 952 365.2880284419484 L 953 363.37603280970336 L 954 361.4679779629689 L 955 359.5640585796987 L 956 357.6644689159073 L 957 355.769402785849 L 958 353.879053542245 L 959 351.99361405655435 L 960 350.11327669929585 L 961 348.2382333204206 L 962 346.36867522973733 L 963 344.5047931773938 L 964 342.64677733441323 L 965 340.7948172732931 L 966 338.94910194866213 L 967 337.10981967800114 L 968 335.2771581224298 L 969 333.4513042675593 L 970 331.6324444044135 L 971 329.8207641104234 L 972 328.0164482304916 L 973 326.2196808581329 L 974 324.4306453166914 L 975 322.64952414063634 L 976 320.876499056937 L 977 319.111750966523 L 978 317.35545992582604 L 979 315.60780512840864 L 980 313.8689648866817 L 981 312.1391166137111 L 982 310.4184368051157 L 983 308.7071010210608 L 984 307.0052838683452 L 985 305.31315898258583 L 986 303.63089901050233 L 987 301.95867559230203 L 988 300.29665934416624 L 989 298.64501984084455 L 990 297.00392559835166 L 991 295.3735440567741 L 992 293.7540415631868 L 993 292.14558335468 L 994 290.54833354150134 L 995 288.96245509030996 L 996 287.3881098075511 L 997 285.8254583229459 L 998 284.2746600731028 L 999 282.7358732852499 L 1000 281.2092549610919 L 1001 279.6949608607898 L 1002 278.19314548707086 L 1003 276.7039620694629 L 1004 275.2275625486614 L 1005 273.7640975610268 L 1006 272.3137164232151 L 1007 270.8765671169427 L 1008 269.45279627388885 L 1009 268.0425491607343 L 1010 266.6459696643399 L 1011 265.2632002770656 L 1012 263.89438208223294 L 1013 262.5396547397288 L 1014 261.19915647175765 L 1015 259.8730240487379 L 1016 258.5613927753473 L 1017 257.2643964767183 L 1018 255.98216748478342 L 1019 254.71483662477343 L 1020 253.46253320187014 L 1021 252.22538498801262 L 1022 251.003518208861 L 1023 249.79705753091773 L 1024 248.60612604880782 L 1025 247.43084527271984 L 1026 246.27133511600744 L 1027 245.12771388295596 L 1028 244.00009825671088 L 1029 242.8886032873731 L 1030 241.7933423802603 L 1031 240.71442728433655 L 1032 239.65196808080972 L 1033 238.60607317190124 L 1034 237.576849269785 L 1035 236.56440138569968 L 1036 235.56883281923476 L 1037 234.59024514779082 L 1038 233.62873821621508 L 1039 232.68441012661532 L 1040 231.75735722834975 L 1041 230.84767410819694 L 1042 229.9554535807049 L 1043 229.08078667872158 L 1044 228.22376264410624 L 1045 227.38446891862495 L 1046 226.5629911350283 L 1047 225.75941310831476 L 1048 224.97381682717875 L 1049 224.20628244564563 L 1050 223.45688827489315 L 1051 222.72571077526214 L 1052 222.01282454845474 L 1053 221.318302329923 L 1054 220.6422149814477 L 1055 219.98463148390846 L 1056 219.34561893024517 L 1057 218.7252425186133 L 1058 218.12356554573125 L 1059 217.54064940042232 L 1060 216.97655355735122 L 1061 216.43133557095595 L 1062 215.90505106957565 L 1063 215.39775374977438 L 1064 214.9094953708632 L 1065 214.44032574961872 L 1066 213.9902927552004 L 1067 213.55944230426655 L 1068 213.14781835628955 L 1069 212.75546290907025 L 1070 212.38241599445357 L 1071 212.0287156742437 L 1072 211.69439803632073 L 1073 211.37949719095866 L 1074 211.0840452673452 L 1075 210.8080724103033 L 1076 210.55160677721608 L 1077 210.31467453515342 L 1078 210.09729985820243 L 1079 209.89950492500085 L 1080 209.72130991647433 L 1081 209.56273301377706 L 1082 209.42379039643717 L 1083 209.30449624070562 L 1084 209.20486271810995 L 1085 209.1248999942124 L 1086 209.06461622757274 L 1087 209.02401756891572 L 1088 209.0031081605038 L 1089 209.00189013571423 L 1090 209.02036361882148 L 1091 209.05852672498466 L 1092 209.11637556043962 L 1093 209.1939042228965 L 1094 209.2911048021417 L 1095 209.40796738084507 L 1096 209.54448003557175 L 1097 209.70062883799872 L 1098 209.87639785633587 L 1099 210.07176915695152 L 1100 210.28672280620225 L 1101 210.52123687246663 L 1102 210.77528742838294 L 1103 211.04884855329044 L 1104 211.34189233587404 L 1105 211.65438887701208 L 1106 211.98630629282712 L 1107 212.33761071793862 L 1108 212.70826630891858 L 1109 213.09823524794845 L 1110 213.50747774667772 L 1111 213.93595205028348 L 1112 214.3836144417307 L 1113 214.8504192462327 L 1114 215.33631883591102 L 1115 215.84126363465526 L 1116 216.36520212318118 L 1117 216.90808084428693 L 1118 217.46984440830786 L 1119 218.0504354987672 L 1120 218.64979487822455 L 1121 219.26786139431957 L 1122 219.90457198601143 L 1123 220.55986169001298 L 1124 221.23366364741852 L 1125 221.92590911052628 L 1126 222.63652744985163 L 1127 223.36544616133403 L 1128 224.11259087373446 L 1129 224.8778853562234 L 1130 225.66125152615865 L 1131 226.46260945705234 L 1132 227.28187738672528 L 1133 228.11897172564952 L 1134 228.9738070654767 L 1135 229.84629618775247 L 1136 230.73635007281501 L 1137 231.64387790887832 L 1138 232.56878710129686 L 1139 233.5109832820134 L 1140 234.47037031918737 L 1141 235.44685032700306 L 1142 236.44032367565666 L 1143 237.4506890015222 L 1144 238.4778432174925 L 1145 239.52168152349802 L 1146 240.582097417199 L 1147 241.6589827048523 L 1148 242.75222751234978 L 1149 243.86172029642972 L 1150 244.98734785605623 L 1151 246.12899534397 L 1152 247.28654627840575 L 1153 248.45988255497696 L 1154 249.64888445872575 L 1155 250.85343067633812 L 1156 252.07339830852035 L 1157 253.30866288253915 L 1158 254.55909836492125 L 1159 255.82457717431262 L 1160 257.1049701944956 L 1161 258.4001467875622 L 1162 259.70997480724407 L 1163 261.0343206123939 L 1164 262.37304908062157 L 1165 263.7260236220806 L 1166 265.09310619340425 L 1167 266.47415731178967 L 1168 267.86903606923045 L 1169 269.2776001468917 L 1170 270.6997058296322 L 1171 272.13520802066654 L 1172 273.5839602563701 L 1173 275.0458147212221 L 1174 276.52062226288797 L 1175 278.00823240743597 L 1176 279.50849337469106 L 1177 281.02125209372053 L 1178 282.5463542184518 L 1179 284.08364414342026 L 1180 285.6329650196462 L 1181 287.1941587706368 L 1182 288.76706610851573 L 1183 290.3515265502747 L 1184 291.9473784341475 L 1185 293.55445893610414 L 1186 295.17260408646484 L 1187 296.801648786628 L 1188 298.44142682591604 L 1189 300.09177089853404 L 1190 301.75251262063955 L 1191 303.4234825475225 L 1192 305.10451019089385 L 1193 306.795424036281 L 1194 308.49605156052615 L 1195 310.20621924938933 L 1196 311.9257526152521 L 1197 313.6544762149205 L 1198 315.3922136675247 L 1199 317.1387876725166 L 1200 318.89402002775796 L 1201 320.65773164770326 L 1202 322.4297425816715 L 1203 324.20987203220665 L 1204 325.9979383735237 L 1205 327.7937591700414 L 1206 329.5971511949941 L 1207 331.40793044912743 L 1208 333.2259121794715 L 1209 335.0509108981911 L 1210 336.88274040151055 L 1211 338.72121378871356 L 1212 340.56614348121013 L 1213 342.4173412416771 L 1214 344.27461819326294 L 1215 346.13778483885926 L 1216 348.00665108043444 L 1217 349.8810262384308 L 1218 351.7607190712175 L 1219 353.645537794604 L 1220 355.5352901014077 L 1221 357.4297831810746 L 1222 359.32882373935183 L 1223 361.2322180180092 L 1224 363.1397718146093 L 1225 365.05129050232017 L 1226 366.966579049774 L 1227 368.88544204096604 L 1228 370.80768369519274 L 1229 372.7331078870267 L 1230 374.6615181663287 L 1231 376.5927177782894 L 1232 378.5265096835055 L 1233 380.4626965780832 L 1234 382.4010809137691 L 1235 384.3414649181054 L 1236 386.28365061461017 L 1237 388.22743984297466 L 1238 390.1726342792828 L 1239 392.11903545624585 L 1240 394.0664447834518 L 1241 396.0146635676273 L 1242 397.96349303291134 L 1243 399.9127343411346 L 1244 401.8621886121077 L 1245 403.81165694391296 L 1246 405.76094043319813 L 1247 407.7098401954698 L 1248 409.65815738538714 L 1249 411.605693217048 L 1250 413.5522489842721 L 1251 415.4976260808748 L 1252 417.4416260209304 L 1253 419.3840504590238 L 1254 421.32470121048857 L 1255 423.2633802716255 L 1256 425.19988983990675 L 1257 427.1340323341564 L 1258 429.06561041471036 L 1259 430.9944270035503 L 1260 432.9202853044113 L 1261 434.8429888228622 L 1262 436.76234138635186 L 1263 438.67814716422583 L 1264 440.59021068770653 L 1265 442.498336869837 L 1266 444.40233102538485 L 1267 446.3019988907076 L 1268 448.19714664357116 L 1269 450.0875809229267 L 1270 451.9731088486389 L 1271 453.85353804116556 L 1272 455.72867664118536 L 1273 457.5983333291748 L 1274 459.4623173449263 L 1275 461.32043850701274 L 1276 463.1725072321912 L 1277 465.0183345547462 L 1278 466.8577321457693 L 1279 468.69051233237565 L 1280 470.51648811684987 L 1281 472.3354731957272 L 1282 474.1472819788013 L 1283 475.95172960805985 L 1284 477.74863197654537 L 1285 479.53780574714085 L 1286 481.31906837127354 L 1287 483.0922381075417 L 1288 484.8571340402571 L 1289 486.61357609790394 L 1290 488.36138507151134 L 1291 490.1003826329377 L 1292 491.83039135306666 L 1293 493.55123471990817 L 1294 495.26273715660943 L 1295 496.96472403936826 L 1296 498.65702171525004 L 1297 500.33945751990535 L 1298 502.0118597951876 L 1299 503.6740579066657 L 1300 505.3258822610352 L 1301 506.9671643234209 L 1302 508.5977366345731 L 1303 510.21743282795273 L 1304 511.82608764670664 L 1305 513.4235369605275 L 1306 515.0096177824004 L 1307 516.5841682852325 L 1308 518.1470278183644 L 1309 519.6980369239603 L 1310 521.237037353279 L 1311 522.7638720828181 L 1312 524.2783853303363 L 1313 525.7804225707472 L 1314 527.2698305518859 L 1315 528.7464573101445 L 1316 530.2101521859784 L 1317 531.6607658392759 L 1318 533.0981502645969 L 1319 534.5221588062732 L 1320 535.9326461733718 L 1321 537.329468454519 L 1322 538.712483132583 L 1323 540.0815490992163 L 1324 541.4365266692514 L 1325 542.7772775949534 L 1326 544.1036650801251 L 1327 545.4155537940651 L 1328 546.7128098853742 L 1329 547.9953009956139 L 1330 549.262896272809 L 1331 550.5154663847997 L 1332 551.7528835324365 L 1333 552.9750214626201 L 1334 554.1817554811828 L 1335 555.3729624656107 L 1336 556.5485208776063 L 1337 557.708310775488 L 1338 558.8522138264292 L 1339 559.9801133185306 L 1340 561.0918941727282 L 1341 562.1874429545362 L 1342 563.2666478856188 L 1343 564.3293988551958 L 1344 565.3755874312774 L 1345 566.405106871727 L 1346 567.417852135152 L 1347 568.4137198916219 L 1348 569.3926085332098 L 1349 570.3544181843603 L 1350 571.2990507120794 L 1351 572.2264097359474 L 1352 573.1364006379516 L 1353 574.0289305721415 L 1354 574.9039084741004 L 1355 575.7612450702377 L 1356 576.600852886897 L 1357 577.4226462592809 L 1358 578.2265413401918 L 1359 579.0124561085861 L 1360 579.7803103779439 L 1361 580.5300258044489 L 1362 581.2615258949828 L 1363 581.9747360149297 L 1364 582.669583395791 L 1365 583.3459971426096 L 1366 584.0039082412037 L 1367 584.6432495652084 L 1368 585.2639558829239 L 1369 585.8659638639717 L 1370 586.449212085756 L 1371 587.0136410397301 L 1372 587.5591931374693 L 1373 588.085812716545 L 1374 588.5934460462053 L 1375 589.0820413328562 L 1376 589.5515487253467 L 1377 590.0019203200544 L 1378 590.4331101657741 L 1379 590.8450742684051 L 1380 591.2377705954406 L 1381 591.6111590802558 L 1382 591.9652016261964 L 1383 592.299862110465 L 1384 592.6151063878073 L 1385 592.9109022939955 L 1386 593.1872196491099 L 1387 593.4440302606188 L 1388 593.6813079262541 L 1389 593.8990284366853 L 1390 594.0971695779895 L 1391 594.2757111339176 L 1392 594.4346348879573 L 1393 594.5739246251912 L 1394 594.6935661339523 L 1395 594.7935472072725 L 1396 594.873857644129 L 1397 594.9344892504853 L 1398 594.9754358401266 L 1399 594.9966932352912 L 1400 594.998259267097 L 1401 594.9801337757624 L 1402 594.942318610623 L 1403 594.8848176299426 L 1404 594.8076367005197 L 1405 594.7107836970886 L 1406 594.5942685015167 L 1407 594.4581030017955 L 1408 594.3023010908279 L 1409 594.1268786650107 L 1410 593.9318536226133 L 1411 593.71724586195 L 1412 593.4830772793518 L 1413 593.2293717669309 L 1414 592.9561552101432 L 1415 592.6634554851476 L 1416 592.3513024559619 L 1417 592.0197279714151 L 1418 591.6687658618987 L 1419 591.2984519359144 L 1420 590.9088239764208 L 1421 590.4999217369783 L 1422 590.0717869376934 L 1423 589.6244632609616 L 1424 589.157996347011 L 1425 588.6724337892449 L 1426 588.1678251293865 L 1427 587.6442218524242 L 1428 587.101677381358 L 1429 586.5402470717494 L 1430 585.9599882060734 L 1431 585.3609599878736 L 1432 584.7432235357221 L 1433 584.1068418769835 L 1434 583.4518799413842 L 1435 582.7784045543873 L 1436 582.0864844303753 L 1437 581.3761901656386 L 1438 580.6475942311723 L 1439 579.900770965283 L 1440 579.1357965660027 L 1441 578.3527490833158 L 1442 577.5517084111948 L 1443 576.7327562794492 L 1444 575.895976245386 L 1445 575.0414536852854 L 1446 574.1692757856889 L 1447 573.2795315345041 L 1448 572.3723117119257 L 1449 571.4477088811725 L 1450 570.5058173790438 L 1451 569.5467333062943 L 1452 568.5705545178278 L 1453 567.5773806127149 L 1454 566.5673129240299 L 1455 565.5404545085121 L 1456 564.4969101360506 L 1457 563.436786278995 L 1458 562.3601911012927 L 1459 561.2672344474511 L 1460 560.1580278313326 L 1461 559.0326844247751 L 1462 557.891319046046 L 1463 556.7340481481272 L 1464 555.5609898068332 L 1465 554.3722637087637 L 1466 553.1679911390933 L 1467 551.948294969195 L 1468 550.7132996441051 L 1469 549.4631311698254 L 1470 548.1979171004675 L 1471 546.9177865252374 L 1472 545.6228700552658 L 1473 544.3132998102813 L 1474 542.9892094051304 L 1475 541.6507339361449 L 1476 540.298009967358 L 1477 538.9311755165703 L 1478 537.5503700412689 L 1479 536.1557344243979 L 1480 534.7474109599844 L 1481 533.32554333862 L 1482 531.8902766328011 L 1483 530.4417572821253 L 1484 528.9801330783522 L 1485 527.5055531503235 L 1486 526.0181679487474 L 1487 524.5181292308481 L 1488 523.0055900448823 L 1489 521.4807047145239 L 1490 519.9436288231174 L 1491 518.3945191978055 L 1492 516.8335338935269 L 1493 515.2608321768903 L 1494 513.6765745099246 L 1495 512.080922533707 L 1496 510.4740390518705 L 1497 508.85608801399354 L 1498 507.2272344988725 L 1499 505.58764469767823 L 1500 503.9374858969999 L 1501 502.2769264617771 L 1502 500.60613581812055 L 1503 498.9252844360272 L 1504 497.2345438119862 L 1505 495.5340864514817 L 1506 493.8240858513916 L 1507 492.1047164822868 L 1508 490.3761537706282 L 1509 488.6385740808703 L 1510 486.8921546974651 L 1511 485.1370738067749 L 1512 483.37351047889115 L 1513 481.60164464936497 L 1514 479.821657100847 L 1515 478.0337294446439 L 1516 476.2380441021876 L 1517 474.43478428642317 L 1518 472.6241339831157 L 1519 470.80627793207833 L 1520 468.9814016083235 L 1521 467.1496912031381 L 1522 465.3113336050879 L 1523 463.4665163809485 L 1524 461.6154277565681 L 1525 459.75825659766315 L 1526 457.8951923905483 L 1527 456.02642522280246 L 1528 454.1521457638758 L 1529 452.27254524563483 L 1530 450.38781544285115 L 1531 448.49814865363487 L 1532 446.6037376798151 L 1533 444.7047758072666 L 1534 442.8014567861915 L 1535 440.89397481134927 L 1536 438.9825245022437 L 1537 437.0673008832658 L 1538 435.14849936379613 L 1539 433.22631571826565" stroke-linecap="round" stroke-linejoin="round" stroke-miterlimit="10" stroke-width="17"/></g></svg>