<svg width="710" height="119" viewBox="0 0 710 119" fill="none" xmlns="http://www.w3.org/2000/svg">
<path fill-rule="evenodd" clip-rule="evenodd" d="M189.63 0L129.12 118.28H72.29L97.61 69.26H96.47C75.58 96.38 44.41 114.23 0 118.28V69.94C0 69.94 28.41 68.26 45.11 50.7H0.0100021V0H50.71V41.7H51.85L72.57 0H110.91V41.44H112.05L133.55 0H189.63Z" fill="black"/>
<path d="M519.57 105.23H535.9V11.5H519.57V105.23Z" fill="black"/>
<path fill-rule="evenodd" clip-rule="evenodd" d="M429.56 104.27C433.11 105.75 436.72 106.48 440.39 106.48C446.45 106.48 451.87 105 456.66 102.05C461.44 99.1001 465.149 95.0301 467.789 89.8501C470.419 84.6301 471.74 78.7 471.74 72.09C471.74 65.47 470.379 59.5501 467.669 54.3301C464.959 49.1101 461.189 45.06 456.359 42.19C451.539 39.28 446.05 37.84 439.91 37.8801C436 37.8801 432.25 38.6401 428.67 40.1501C425.08 41.6701 422.09 43.8201 419.7 46.6101C419.52 46.8201 419.34 47.04 419.16 47.25V11.5601H402.77V105.23H419.04L419.01 96.4801C419.43 97.0001 419.88 97.5001 420.36 97.9901C422.94 100.66 426.01 102.75 429.56 104.27ZM446.299 89.1401C443.63 90.7701 440.58 91.59 437.15 91.59C433.76 91.59 430.65 90.7501 427.82 89.0801C424.99 87.3601 422.74 85.0301 421.06 82.0801C419.43 79.1301 418.61 75.78 418.61 72.03C418.57 68.28 419.37 64.9301 421 61.9801C422.67 58.9901 424.93 56.6801 427.76 55.0401C430.59 53.3701 433.72 52.55 437.15 52.59C440.58 52.55 443.63 53.3501 446.299 54.9801C449.009 56.5701 451.08 58.8701 452.52 61.8601C454 64.8101 454.729 68.2 454.729 72.03C454.729 75.86 453.99 79.2501 452.52 82.2001C451.09 85.1501 449.02 87.4601 446.299 89.1401Z" fill="black"/>
<path d="M213.291 17.1799H231.951L248.641 78.1499L266.401 17.1799H281.951L301.211 76.9199L317.241 17.1799H334.351L309.111 105.22H293.021L273.441 46.8599L255.461 105.22H239.191L213.291 17.1799Z" fill="black"/>
<path fill-rule="evenodd" clip-rule="evenodd" d="M361.911 106.78C355.411 106.82 349.551 105.38 344.321 102.47C339.141 99.5199 335.051 95.43 332.061 90.21C329.111 84.99 327.631 79.03 327.631 72.33C327.631 65.83 329.151 59.9499 332.181 54.6899C335.211 49.4299 339.321 45.32 344.501 42.37C349.681 39.42 355.471 37.9399 361.851 37.9399C369.031 37.9399 375.311 39.5299 380.691 42.7199C386.111 45.9099 390.161 50.44 392.831 56.3C395.541 62.12 396.521 68.7999 395.761 76.3399H344.531C344.671 79.3399 345.421 82.0699 346.781 84.5299C348.301 87.2399 350.411 89.35 353.121 90.87C355.831 92.39 358.861 93.14 362.211 93.14C364.761 93.1 367.131 92.6599 369.331 91.8199C371.521 90.9399 373.381 89.7699 374.891 88.2899C376.451 86.8099 377.541 85.14 378.181 83.27H395.291C394.251 87.86 392.181 91.9399 389.071 95.5299C385.961 99.0799 382.051 101.85 377.351 103.84C372.641 105.84 367.491 106.82 361.911 106.78ZM346.841 59.89C345.881 61.56 345.221 63.35 344.851 65.27H378.811C378.561 62.84 377.811 60.6299 376.561 58.6299C375.121 56.2799 373.171 54.4599 370.701 53.1899C368.231 51.8699 365.441 51.2199 362.331 51.2199C359.021 51.2199 356.011 51.98 353.301 53.49C350.581 55 348.431 57.14 346.841 59.89Z" fill="black"/>
<path d="M483.751 39.3099C483.751 33.9699 484.971 29.2199 487.401 25.0699C489.831 20.8799 493.241 17.6299 497.631 15.3199C502.061 12.9699 507.221 11.7499 513.121 11.6699V26.1999C510.371 26.2399 508.021 26.8199 506.061 27.9299C504.151 29.0099 502.671 30.5799 501.631 32.6599C500.681 34.5699 500.161 36.7799 500.091 39.2999H512.761V53.1199H500.081V105.22H483.751V53.1199H473.221V39.2999H483.751V39.3099Z" fill="black"/>
<path fill-rule="evenodd" clip-rule="evenodd" d="M577.411 106.66C570.751 106.66 564.791 105.2 559.531 102.29C554.311 99.3399 550.201 95.2699 547.211 90.0899C544.261 84.8699 542.781 78.9499 542.781 72.3299C542.781 65.6699 544.261 59.7299 547.211 54.5099C550.201 49.2499 554.311 45.1599 559.531 42.2499C564.791 39.3399 570.751 37.8799 577.411 37.8799C584.111 37.8799 590.091 39.3399 595.351 42.2499C600.651 45.1599 604.781 49.2299 607.731 54.4499C610.681 59.6699 612.181 65.6299 612.221 72.3299C612.181 78.9499 610.681 84.8699 607.731 90.0899C604.821 95.2699 600.711 99.3399 595.411 102.29C590.111 105.21 584.111 106.66 577.411 106.66ZM577.411 91.6499C580.921 91.6499 584.031 90.8499 586.741 89.2599C589.451 87.6299 591.541 85.3499 593.021 82.4399C594.501 79.4899 595.231 76.1199 595.231 72.3299C595.231 68.4999 594.491 65.1099 593.021 62.1599C591.541 59.2099 589.451 56.9399 586.741 55.3399C584.031 53.7099 580.921 52.8899 577.411 52.8899C573.941 52.8899 570.851 53.7099 568.141 55.3399C565.471 56.9399 563.391 59.2099 561.921 62.1599C560.441 65.1099 559.731 68.4999 559.771 72.3299C559.771 76.1199 560.511 79.4899 561.981 82.4399C563.501 85.3499 565.571 87.6199 568.201 89.2599C570.871 90.8499 573.941 91.6499 577.411 91.6499Z" fill="black"/>
<path d="M629.869 39.3101H611.689L631.369 105.22H647.279L660.219 63.1201L674.189 105.22H689.859L709.599 39.3101H693.149L681.949 80.3401L669.579 39.3101H653.669L641.359 81.2401L629.869 39.3101Z" fill="black"/>
</svg>
